<?xml version="1.0" encoding="UTF-8"?> <svg xmlns="http://www.w3.org/2000/svg" width="20" height="20" viewBox="0 0 20 20" fill="none"><circle cx="10" cy="10" r="9.5" fill="#59CFAF" fill-opacity="0.03" stroke="#59CFAF"></circle><path d="M13.2598 4C12.0482 4 11.0565 4.99021 11.0565 6.2C11.0565 6.22207 11.0588 6.24038 11.0591 6.26187C10.4678 5.94208 9.79145 5.76 9.07366 5.76C8.68666 5.76 8.31352 5.81673 7.95742 5.91555C7.9802 5.7889 7.97489 5.65881 7.94186 5.53444C7.90883 5.41006 7.84889 5.29444 7.76625 5.1957C7.68362 5.09697 7.58031 5.01753 7.46361 4.96298C7.3469 4.90844 7.21963 4.88011 7.09077 4.88C6.89594 4.88063 6.70682 4.94571 6.55296 5.06507C6.39911 5.18442 6.2892 5.35132 6.24042 5.53967C6.19164 5.72802 6.20674 5.9272 6.28336 6.10607C6.35998 6.28494 6.4938 6.43342 6.6639 6.52828C5.5914 7.28628 4.88756 8.53238 4.88756 9.94C4.88756 10.2421 4.9304 10.5337 4.9917 10.8183L4.16119 11.1079L5.84544 11.9183L6.65701 10.2373L5.82737 10.527C5.79272 10.3359 5.76884 10.1415 5.76884 9.94C5.76884 8.11248 7.24347 6.64 9.07366 6.64C10.9038 6.64 12.3785 8.11248 12.3785 9.94C12.3785 11.7675 10.9038 13.24 9.07366 13.24H4.44692C4.38853 13.2392 4.33056 13.2499 4.27637 13.2717C4.22219 13.2934 4.17287 13.3257 4.13129 13.3666C4.0897 13.4076 4.05668 13.4564 4.03414 13.5102C4.01161 13.564 4 13.6217 4 13.68C4 13.7383 4.01161 13.796 4.03414 13.8498C4.05668 13.9036 4.0897 13.9524 4.13129 13.9934C4.17287 14.0343 4.22219 14.0666 4.27637 14.0883C4.33056 14.1101 4.38853 14.1208 4.44692 14.12H9.07366H14.141V15L15.463 13.68L14.141 12.36V13.24H11.5178C12.5472 12.4774 13.2598 11.3139 13.2598 9.94C13.2598 8.86495 12.8466 7.88621 12.1754 7.14445C12.1558 7.09901 12.1288 7.05717 12.0953 7.0207C12.0953 7.0207 12.0889 7.02472 12.042 6.89867C11.995 6.77262 11.9378 6.55073 11.9378 6.2C11.9378 5.46587 12.5246 4.88 13.2598 4.88C13.995 4.88 14.5817 5.46587 14.5817 6.2C14.5817 6.42327 14.5266 6.63077 14.4302 6.81359L13.6247 6.42L14.2314 8.18602L16 7.58016L15.2194 7.19859C15.3731 6.89789 15.463 6.55872 15.463 6.2C15.463 4.99021 14.4713 4 13.2598 4Z" fill="#59CFAF"></path></svg> 