<?xml version="1.0" encoding="UTF-8"?> <svg xmlns="http://www.w3.org/2000/svg" width="20" height="20" viewBox="0 0 20 20" fill="none"><circle cx="10" cy="10" r="9.5" fill="#59CFAF" fill-opacity="0.03" stroke="#59CFAF"></circle><path d="M14.0909 5C13.8498 5 13.6186 5.10078 13.4481 5.28016C13.2776 5.45954 13.1818 5.70284 13.1818 5.95652C13.1822 6.06443 13.1999 6.17149 13.2342 6.27318L11.5305 8.36464C11.4755 8.35364 11.4196 8.34801 11.3636 8.34783C11.2241 8.34793 11.0865 8.38181 10.9615 8.44684L9.54279 7.45202C9.54429 7.43182 9.54518 7.41157 9.54545 7.3913C9.54545 7.13762 9.44968 6.89432 9.27919 6.71494C9.1087 6.53556 8.87747 6.43478 8.63636 6.43478C8.40496 6.43505 8.18236 6.52816 8.01394 6.69512C7.84551 6.86209 7.74395 7.09036 7.72994 7.33339L6.40891 8.02836C6.26065 7.92515 6.08687 7.86994 5.90909 7.86957C5.66799 7.86957 5.43675 7.97034 5.26627 8.14972C5.09578 8.32911 5 8.5724 5 8.82609C5 9.07977 5.09578 9.32307 5.26627 9.50245C5.43675 9.68183 5.66799 9.78261 5.90909 9.78261C6.1405 9.78234 6.3631 9.68924 6.53152 9.52227C6.69994 9.3553 6.80151 9.12703 6.81552 8.884L8.13654 8.18903C8.28481 8.29224 8.45858 8.34745 8.63636 8.34783C8.77586 8.34772 8.91347 8.31385 9.03853 8.24881L10.4572 9.24363C10.4557 9.26384 10.4548 9.28408 10.4545 9.30435C10.4545 9.55803 10.5503 9.80133 10.7208 9.98071C10.8913 10.1601 11.1225 10.2609 11.3636 10.2609C11.6047 10.2609 11.836 10.1601 12.0065 9.98071C12.1769 9.80133 12.2727 9.55803 12.2727 9.30435C12.2724 9.19644 12.2547 9.08938 12.2203 8.98769L13.924 6.89623C13.979 6.90723 14.0349 6.91286 14.0909 6.91304C14.332 6.91304 14.5632 6.81227 14.7337 6.63288C14.9042 6.4535 15 6.21021 15 5.95652C15 5.70284 14.9042 5.45954 14.7337 5.28016C14.5632 5.10078 14.332 5 14.0909 5ZM8.63636 10.7391C8.39526 10.7391 8.16403 10.8399 7.99354 11.0193C7.82305 11.1987 7.72727 11.442 7.72727 11.6957C7.72763 11.8036 7.74534 11.9106 7.77965 12.0123L6.07599 14.1038C6.02097 14.0928 5.9651 14.0871 5.90909 14.087C5.66799 14.087 5.43675 14.1877 5.26627 14.3671C5.09578 14.5465 5 14.7898 5 15.0435C5 15.2972 5.09578 15.5405 5.26627 15.7198C5.43675 15.8992 5.66799 16 5.90909 16C6.1502 16 6.38143 15.8992 6.55192 15.7198C6.7224 15.5405 6.81818 15.2972 6.81818 15.0435C6.81782 14.9356 6.80011 14.8285 6.7658 14.7268L8.46946 12.6354C8.52448 12.6464 8.58036 12.652 8.63636 12.6522C8.71555 12.6518 8.79434 12.6404 8.87074 12.6185L10.4856 14.3177C10.465 14.3984 10.4546 14.4816 10.4545 14.5652C10.4545 14.8189 10.5503 15.0622 10.7208 15.2416C10.8913 15.421 11.1225 15.5217 11.3636 15.5217C11.6047 15.5217 11.836 15.421 12.0065 15.2416C12.1769 15.0622 12.2727 14.8189 12.2727 14.5652C12.2725 14.545 12.2716 14.5247 12.2701 14.5045L13.6887 13.5097C13.8138 13.5747 13.9514 13.6086 14.0909 13.6087C14.332 13.6087 14.5632 13.5079 14.7337 13.3285C14.9042 13.1492 15 12.9059 15 12.6522C15 12.3985 14.9042 12.1552 14.7337 11.9758C14.5632 11.7964 14.332 11.6957 14.0909 11.6957C13.8498 11.6957 13.6186 11.7964 13.4481 11.9758C13.2776 12.1552 13.1818 12.3985 13.1818 12.6522C13.1821 12.6724 13.183 12.6927 13.1845 12.7129L11.7658 13.7077C11.6407 13.6427 11.5031 13.6088 11.3636 13.6087C11.2845 13.6091 11.2057 13.6204 11.1293 13.6423L9.51438 11.9432C9.53497 11.8625 9.54542 11.7792 9.54545 11.6957C9.54545 11.442 9.44968 11.1987 9.27919 11.0193C9.1087 10.8399 8.87747 10.7391 8.63636 10.7391Z" fill="#59CFAF"></path></svg> 