<?xml version="1.0" encoding="UTF-8"?> <svg xmlns="http://www.w3.org/2000/svg" width="20" height="20" viewBox="0 0 20 20" fill="none"><circle cx="10" cy="10" r="9.5" fill="#59CFAF" fill-opacity="0.03" stroke="#59CFAF"></circle><path d="M10 4C6.6865 4 4 6.6865 4 10C4 13.3135 6.6865 16 10 16H10.5C11.3285 16 12 15.3285 12 14.5C12 14.5 12 13.369 12 13C12 12.4475 12.4475 12 13 12C13.369 12 15 12 15 12C15.5525 12 16 11.5525 16 11C16 11 16 10.3125 16 10C16 6.6865 13.3135 4 10 4ZM10 5C10.5525 5 11 5.4475 11 6C11 6.5525 10.5525 7 10 7C9.4475 7 9 6.5525 9 6C9 5.4475 9.4475 5 10 5ZM6 11C5.4475 11 5 10.5525 5 10C5 9.4475 5.4475 9 6 9C6.5525 9 7 9.4475 7 10C7 10.5525 6.5525 11 6 11ZM9.75 15C9.0595 15 8.5 14.4405 8.5 13.75C8.5 13.0595 9.0595 12.5 9.75 12.5C10.4405 12.5 11 13.0595 11 13.75C11 14.4405 10.4405 15 9.75 15ZM14 11C13.4475 11 13 10.5525 13 10C13 9.4475 13.4475 9 14 9C14.5525 9 15 9.4475 15 10C15 10.5525 14.5525 11 14 11ZM13.5355 7.8785C13.145 8.269 12.512 8.269 12.1215 7.8785C11.731 7.488 11.731 6.855 12.1215 6.4645C12.512 6.074 13.145 6.074 13.5355 6.4645C13.926 6.855 13.926 7.488 13.5355 7.8785ZM6.4645 7.8785C6.074 7.488 6.074 6.855 6.4645 6.4645C6.855 6.074 7.488 6.074 7.8785 6.4645C8.269 6.855 8.269 7.488 7.8785 7.8785C7.488 8.269 6.855 8.269 6.4645 7.8785Z" fill="#59CFAF"></path></svg> 