<?xml version="1.0" encoding="UTF-8"?> <svg xmlns="http://www.w3.org/2000/svg" width="20" height="20" viewBox="0 0 20 20" fill="none"><circle cx="10" cy="10" r="9.5" fill="#59CFAF" fill-opacity="0.03" stroke="#59CFAF"></circle><path d="M7.46667 6C5.56444 6 4 7.57304 4 9.5C4 11.4253 5.55975 13 7.46667 13C8.61327 13 9.38215 12.451 9.97018 11.702C9.69718 11.2777 9.46722 10.8375 9.26009 10.4254C8.76522 11.2239 8.2588 11.6875 7.46667 11.6875C6.26225 11.6875 5.3 10.716 5.3 9.5C5.3 8.28571 6.2697 7.3125 7.46667 7.3125C8.08485 7.3125 8.4493 7.5403 8.83438 7.97986C9.21945 8.41942 9.56181 9.08373 9.91602 9.7948C10.2702 10.5059 10.6367 11.264 11.1872 11.8909C11.7378 12.5177 12.5353 13 13.5333 13C15.4239 13 17 11.4312 17 9.5C17 7.57474 15.4403 6 13.5333 6C12.385 6 11.6166 6.55356 11.029 7.30737C11.3015 7.73306 11.5311 8.17399 11.7382 8.58655C12.2348 7.78024 12.7412 7.3125 13.5333 7.3125C14.7377 7.3125 15.7 8.28401 15.7 9.5C15.7 10.71 14.7117 11.6875 13.5333 11.6875C12.9122 11.6875 12.5457 11.4588 12.1597 11.0193C11.7737 10.5798 11.4313 9.91601 11.0772 9.2052C10.7231 8.49439 10.3577 7.73683 9.80853 7.10999C9.25939 6.48314 8.46287 6 7.46667 6Z" fill="#59CFAF"></path></svg> 