<?xml version="1.0" encoding="UTF-8"?> <svg xmlns="http://www.w3.org/2000/svg" width="581" height="601" viewBox="0 0 581 601" fill="none"><path d="M273.211 422.945C206.079 418.631 154.959 360.233 159.252 292.772C163.544 225.31 221.657 173.939 288.789 178.253C355.921 182.567 407.041 240.964 402.748 308.426C401.718 324.583 387.85 336.847 371.771 335.812C355.692 334.777 343.489 320.841 344.519 304.683C346.757 269.486 320.089 239.023 285.064 236.768C250.04 234.519 219.725 261.318 217.481 296.515C215.243 331.711 241.911 362.175 276.936 364.424C293.014 365.459 305.218 379.395 304.188 395.553C303.158 411.71 289.29 423.974 273.211 422.939V422.945Z" fill="white"></path><path d="M168.866 472.935C163.248 472.578 157.67 470.594 152.883 466.892C97.4123 424.048 66.9629 356.777 71.4315 286.948C72.988 262.633 78.645 239.059 88.2518 216.873C97.5295 195.435 110.266 175.796 126.11 158.494C137.005 146.592 155.499 145.767 167.416 156.66C179.327 167.546 180.152 186.025 169.251 197.932C145.669 223.685 132.024 255.76 129.786 290.683C126.556 341.119 148.559 389.716 188.643 420.676C201.419 430.542 203.768 448.887 193.893 461.653C187.723 469.629 178.233 473.537 168.872 472.941L168.866 472.935Z" fill="white"></path><path d="M321.485 505.946C309.053 505.149 298.054 496.408 294.966 483.677C291.169 468.005 300.803 452.227 316.479 448.427C347.286 440.967 375.651 423.501 396.345 399.243C417.724 374.183 430.14 343.512 432.253 310.535C434.845 270.064 421.51 231.009 394.706 200.561C367.902 170.113 330.84 151.923 290.35 149.332C274.25 148.301 262.029 134.423 263.061 118.333C264.092 102.243 277.979 90.03 294.079 91.0607C322.405 92.8714 349.544 100.181 374.737 112.784C399.06 124.952 420.54 141.504 438.574 161.996C456.609 182.482 470.307 205.882 479.282 231.544C488.581 258.125 492.372 285.954 490.56 314.262C487.639 359.914 470.435 402.402 440.804 437.128C426.566 453.82 409.886 468.133 391.227 479.671C372.306 491.377 351.785 499.957 330.227 505.172C327.289 505.885 324.34 506.124 321.474 505.941L321.485 505.946Z" fill="white"></path><path d="M38.3513 204.941C34.4194 204.69 30.4763 203.634 26.7562 201.695C12.4339 194.241 6.8567 176.562 14.2967 162.213C40.7941 111.115 81.1956 68.8733 131.128 40.0416C182.366 10.4556 240.766 -3.17239 300.013 0.621551C362.756 4.64458 421.613 27.7211 470.224 67.3647C482.739 77.5731 484.63 96.0176 474.44 108.556C464.251 121.094 445.846 122.989 433.325 112.78C394.206 80.8753 346.817 62.3024 296.287 59.0616C248.568 56.0052 201.558 66.968 160.325 90.7765C120.08 114.015 87.5201 148.054 66.1761 189.212C60.6658 199.834 49.5671 205.656 38.3569 204.941H38.3513Z" fill="white"></path><path d="M261.938 600.383C204.205 596.693 149.19 576.676 102.842 542.489C57.7439 509.222 22.9033 464.215 2.10384 412.33C-3.90105 397.352 3.38741 380.35 18.3829 374.353C33.3728 368.355 50.3996 375.635 56.4045 390.607C73.1635 432.408 101.24 468.675 137.593 495.487C174.884 522.996 219.178 539.105 265.677 542.076C298.285 544.161 330.308 539.808 360.862 529.144C390.385 518.837 417.323 503.096 440.929 482.354C464.53 461.612 483.594 436.935 497.596 408.997C512.078 380.088 520.483 348.917 522.57 316.347C523.603 300.248 537.504 288.03 553.621 289.061C569.739 290.092 581.972 303.977 580.939 320.076C578.35 360.489 567.908 399.203 549.899 435.14C532.515 469.84 508.847 500.481 479.565 526.212C450.277 551.943 416.837 571.486 380.166 584.285C342.184 597.546 302.41 602.959 261.949 600.372L261.938 600.383Z" fill="white"></path></svg> 