<?xml version="1.0" encoding="UTF-8"?> <svg xmlns="http://www.w3.org/2000/svg" width="2042" height="2042" viewBox="0 0 2042 2042" fill="none"><g clip-path="url(#clip0_750_37334)"><path d="M1895.46 493.68C1818.75 366.73 1715.17 257.84 1592.6 174.88C1429.5 64.48 1232.78 0 1021 0C809.22 0 612.5 64.48 449.4 174.88C354.02 239.44 270.13 319.71 201.46 411.97C74.9 581.99 0 792.75 0 1021C0 1249.25 74.9 1460.01 201.46 1630.03C296.7 1757.98 421.19 1862.86 565.03 1934.77C702.27 2003.39 857.13 2042 1021 2042C1184.87 2042 1339.73 2003.39 1476.97 1934.77C1650.38 1848.08 1795.65 1713.48 1895.46 1548.32C1988.48 1394.41 2042 1213.95 2042 1021C2042 828.05 1988.48 647.59 1895.46 493.68ZM756.79 1402.42C793.33 1430.65 800.06 1483.13 771.8 1519.65C754.15 1542.46 727 1553.65 700.21 1551.93H700.2C684.13 1550.9 668.17 1545.23 654.47 1534.64C495.78 1412.06 408.68 1219.61 421.46 1019.85C425.91 950.29 442.09 882.84 469.58 819.37C496.12 758.05 532.56 701.86 577.89 652.36C609.05 618.31 661.97 615.95 696.06 647.11C730.13 678.26 732.49 731.12 701.3 765.18C633.84 838.86 594.8 930.62 588.4 1030.53C579.16 1174.82 642.11 1313.85 756.79 1402.42ZM672.7 1036.51C684.98 843.51 851.23 696.54 1043.28 708.89C1235.34 721.23 1381.58 888.29 1369.3 1081.29C1366.35 1127.51 1326.68 1162.6 1280.68 1159.64C1234.69 1156.67 1199.77 1116.81 1202.72 1070.58C1209.12 969.89 1132.83 882.73 1032.63 876.3C932.43 869.86 845.7 946.53 839.29 1047.22C832.88 1147.9 909.18 1235.06 1009.38 1241.49C1055.38 1244.45 1090.29 1284.32 1087.34 1330.55C1084.39 1376.77 1044.71 1411.86 998.72 1408.89C806.66 1396.56 660.42 1229.5 672.7 1036.51ZM1122.51 1481.81C1210.64 1460.46 1291.78 1410.5 1350.98 1341.1C1412.15 1269.4 1447.66 1181.67 1453.72 1087.32C1461.13 971.54 1422.98 859.81 1346.3 772.71C1269.61 685.6 1163.58 633.56 1047.75 626.15C1001.69 623.2 966.72 583.5 969.68 537.47C972.63 491.44 1012.36 456.49 1058.41 459.44C1139.45 464.63 1217.09 485.54 1289.16 521.59C1358.75 556.4 1420.21 603.76 1471.8 662.38C1523.38 720.98 1562.58 787.93 1588.26 861.35C1614.85 937.38 1625.7 1017 1620.51 1097.98C1612.16 1228.59 1562.95 1350.14 1478.18 1449.48C1437.43 1497.24 1389.72 1538.19 1336.34 1571.19C1282.22 1604.69 1223.5 1629.22 1161.84 1644.16C1153.42 1646.19 1144.99 1646.87 1136.78 1646.35C1101.23 1644.07 1069.79 1619.06 1060.95 1582.66C1050.09 1537.82 1077.66 1492.68 1122.51 1481.81ZM258 662.99C333.81 516.82 449.4 395.96 592.25 313.49C738.83 228.84 905.9 189.85 1075.39 200.71C1254.9 212.22 1423.27 278.23 1562.34 391.65C1598.15 420.85 1603.55 473.62 1574.41 509.49C1545.25 545.36 1492.59 550.78 1456.78 521.59C1344.87 430.31 1209.29 377.17 1064.73 367.9C928.22 359.16 793.73 390.51 675.77 458.63C560.63 525.11 467.49 622.5 406.43 740.24C390.65 770.62 358.9 787.29 326.83 785.24H326.82C315.58 784.51 304.29 781.49 293.65 775.95C252.68 754.63 236.73 704.05 258 662.99ZM1879.08 1114.62C1871.67 1230.24 1841.8 1340.99 1790.28 1443.8C1740.54 1543.06 1672.82 1630.73 1589.06 1704.35C1505.28 1777.96 1409.61 1833.87 1304.7 1870.48C1196.03 1908.41 1082.24 1923.9 966.51 1916.5L966.46 1916.53C801.31 1905.97 643.92 1848.71 511.32 1750.92C382.29 1655.73 282.63 1526.98 223.12 1378.54C205.95 1335.69 226.8 1287.06 269.7 1269.9C312.59 1252.74 361.29 1273.56 378.46 1316.39C426.42 1435.99 506.74 1539.73 610.74 1616.44C717.42 1695.13 844.14 1741.22 977.16 1749.72C1070.45 1755.69 1162.06 1743.23 1249.47 1712.73C1333.93 1683.24 1411 1638.21 1478.54 1578.87C1546.05 1519.54 1600.59 1448.93 1640.65 1369.01C1682.09 1286.3 1706.13 1197.13 1712.1 1103.96C1715.05 1057.9 1754.82 1022.94 1800.93 1025.89C1847.03 1028.84 1882.02 1068.57 1879.08 1114.62Z" fill="#FCF9F9"></path></g><defs><clipPath id="clip0_750_37334"><rect width="2042" height="2042" fill="white"></rect></clipPath></defs></svg> 