<?xml version="1.0" encoding="UTF-8"?> <svg xmlns="http://www.w3.org/2000/svg" width="1234" height="1282" viewBox="0 0 1234 1282" fill="none"><g clip-path="url(#clip0_749_37327)"><path d="M0 0V1282H1234V0H0ZM404.53 894.21C431.15 914.77 436.05 953 415.47 979.6C402.61 996.22 382.83 1004.37 363.32 1003.12H363.31C351.6 1002.37 339.98 998.24 330 990.52C214.4 901.23 150.95 761.04 160.26 615.52C163.5 564.85 175.29 515.72 195.31 469.48C214.65 424.81 241.19 383.88 274.21 347.82C296.91 323.02 335.46 321.3 360.29 344C385.11 366.69 386.83 405.2 364.11 430.01C314.97 483.68 286.53 550.52 281.87 623.3C275.14 728.41 320.99 829.69 404.53 894.21ZM343.28 627.66C352.22 487.07 473.33 380.01 613.23 389C753.13 397.99 859.66 519.69 850.72 660.28C848.57 693.95 819.67 719.51 786.16 717.35C752.66 715.19 727.22 686.15 729.37 652.48C734.03 579.13 678.46 515.64 605.47 510.95C532.48 506.26 469.3 562.11 464.63 635.46C459.96 708.8 515.54 772.29 588.53 776.98C622.04 779.13 647.47 808.18 645.32 841.85C643.17 875.52 614.27 901.08 580.77 898.92C440.86 889.94 334.33 768.24 343.28 627.66ZM670.94 952.04C735.14 936.49 794.25 900.09 837.37 849.54C881.93 797.31 907.8 733.4 912.21 664.67C917.61 580.33 889.82 498.94 833.96 435.49C778.1 372.04 700.86 334.13 616.48 328.73C582.93 326.58 557.46 297.66 559.61 264.13C561.76 230.6 590.7 205.14 624.25 207.29C683.28 211.07 739.84 226.3 792.34 252.56C843.03 277.92 887.8 312.42 925.38 355.12C962.96 397.81 991.51 446.58 1010.22 500.06C1029.59 555.45 1037.49 613.45 1033.71 672.44C1027.63 767.58 991.78 856.12 930.03 928.49C900.35 963.28 865.59 993.11 826.71 1017.15C787.28 1041.55 744.51 1059.42 699.59 1070.3C693.46 1071.78 687.32 1072.28 681.34 1071.9C655.44 1070.24 632.54 1052.02 626.1 1025.5C618.19 992.84 638.27 959.96 670.94 952.04ZM41.19 355.57C96.41 249.09 180.61 161.05 284.67 100.97C391.45 39.31 513.15 10.91 636.62 18.82C767.38 27.2 890.03 75.29 991.34 157.91C1017.42 179.18 1021.36 217.62 1000.13 243.75C978.89 269.88 940.53 273.83 914.44 252.56C832.92 186.07 734.16 147.36 628.85 140.61C529.41 134.24 431.44 157.08 345.51 206.7C261.64 255.13 193.79 326.07 149.31 411.84C137.82 433.97 114.69 446.11 91.33 444.62H91.32C83.13 444.09 74.91 441.89 67.16 437.85C37.31 422.32 25.69 385.48 41.19 355.57ZM1222.07 684.56C1216.67 768.78 1194.91 849.46 1157.38 924.35C1121.15 996.66 1071.82 1060.52 1010.8 1114.15C949.77 1167.77 880.08 1208.5 803.66 1235.17C724.5 1262.8 641.61 1274.08 557.3 1268.69L557.27 1268.71C436.96 1261.02 322.31 1219.31 225.72 1148.07C131.73 1078.73 59.13 984.94 15.78 876.81C3.27 845.6 18.46 810.17 49.71 797.67C80.95 785.17 116.43 800.34 128.94 831.54C163.87 918.66 222.38 994.23 298.14 1050.11C375.85 1107.43 468.16 1141.01 565.06 1147.2C633.02 1151.55 699.75 1142.47 763.43 1120.25C824.95 1098.77 881.09 1065.97 930.29 1022.74C979.47 979.52 1019.2 928.09 1048.38 869.87C1078.57 809.62 1096.08 744.66 1100.43 676.79C1102.58 643.24 1131.55 617.77 1165.14 619.92C1198.72 622.07 1224.21 651.01 1222.07 684.56Z" fill="#FCF9F9"></path></g><defs><clipPath id="clip0_749_37327"><rect width="1234" height="1282" fill="white"></rect></clipPath></defs></svg> 