<?xml version="1.0" encoding="UTF-8"?> <svg xmlns="http://www.w3.org/2000/svg" width="20" height="20" viewBox="0 0 20 20" fill="none"><circle cx="10" cy="10" r="9.5" fill="#59CFAF" fill-opacity="0.03" stroke="#59CFAF"></circle><path d="M6.66667 5C6.14583 5 5.70218 5.21031 5.41748 5.5306C5.13278 5.85088 5 6.26157 5 6.66667C5 7.07176 5.13278 7.48245 5.41748 7.80273C5.61898 8.02942 5.91832 8.1678 6.25 8.2487V12.5C6.25 13.1854 6.8146 13.75 7.5 13.75H8.33333V15L10.4167 13.3333L8.33333 11.6667V12.9167H7.5C7.26457 12.9167 7.08333 12.7354 7.08333 12.5V8.2487C7.41502 8.1678 7.71435 8.02942 7.91585 7.80273C8.20055 7.48245 8.33333 7.07176 8.33333 6.66667C8.33333 6.26157 8.20055 5.85088 7.91585 5.5306C7.63116 5.21031 7.1875 5 6.66667 5ZM11.6667 5L9.58333 6.66667L11.6667 8.33333V7.08333H12.5C12.7354 7.08333 12.9167 7.26457 12.9167 7.5V11.7179C12.5778 11.7972 12.2889 11.9669 12.0841 12.1973C11.7995 12.5175 11.6667 12.9282 11.6667 13.3333C11.6667 13.7384 11.7995 14.1491 12.0841 14.4694C12.3688 14.7897 12.8125 15 13.3333 15C13.8542 15 14.2978 14.7897 14.5825 14.4694C14.8672 14.1491 15 13.7384 15 13.3333C15 12.9282 14.8672 12.5175 14.5825 12.1973C14.3777 11.9669 14.0888 11.7972 13.75 11.7179V7.5C13.75 6.8146 13.1854 6.25 12.5 6.25H11.6667V5ZM6.66667 5.83333C6.97917 5.83333 7.16051 5.93552 7.29248 6.08398C7.42445 6.23245 7.5 6.44676 7.5 6.66667C7.5 6.88657 7.42445 7.10088 7.29248 7.24935C7.16308 7.39492 6.9803 7.49123 6.67887 7.49512C6.67047 7.49459 6.66206 7.49432 6.65365 7.4943C6.3531 7.49011 6.17004 7.39469 6.04085 7.24935C5.90888 7.10088 5.83333 6.88657 5.83333 6.66667C5.83333 6.44676 5.90888 6.23245 6.04085 6.08398C6.17282 5.93552 6.35417 5.83333 6.66667 5.83333ZM13.2926 12.5033C13.3202 12.506 13.3481 12.506 13.3757 12.5033C13.6602 12.5129 13.8338 12.6096 13.9591 12.7507C14.0911 12.8991 14.1667 13.1134 14.1667 13.3333C14.1667 13.5532 14.0911 13.7675 13.9591 13.916C13.8272 14.0645 13.6458 14.1667 13.3333 14.1667C13.0208 14.1667 12.8395 14.0645 12.7075 13.916C12.5755 13.7675 12.5 13.5532 12.5 13.3333C12.5 13.1134 12.5755 12.8991 12.7075 12.7507C12.8331 12.6093 13.0071 12.5125 13.2926 12.5033Z" fill="#59CFAF"></path></svg> 