<?xml version="1.0" encoding="UTF-8"?> <svg xmlns="http://www.w3.org/2000/svg" width="920" height="627" viewBox="0 0 920 627" fill="none"><path d="M529.688 388.805L530.161 388.965L529.687 388.805C510.163 446.632 541.315 509.557 599.14 529.091L599.3 528.617L599.14 529.091C656.967 548.615 719.892 517.463 739.426 459.638L738.952 459.478L739.426 459.638C758.95 401.811 727.798 338.886 669.971 319.362C643.807 310.523 629.754 282.148 638.593 255.984C647.431 229.82 675.806 215.768 701.97 224.606L702.475 224.776L702.477 224.768C812.227 262.132 871.294 381.732 834.182 491.637C797.012 601.711 677.214 661.015 567.141 623.846C457.067 586.677 397.763 466.879 434.932 356.805C443.77 330.642 472.145 316.589 498.309 325.427C524.473 334.265 538.526 362.641 529.688 388.805Z" stroke="#A79BF5" stroke-opacity="0.09"></path><path d="M899.372 186.784L899.379 186.796L899.558 186.856C908.681 189.933 917.019 195.684 923.288 203.924L923.686 203.621L923.288 203.924C996.583 300.151 1017.26 425.945 978.609 540.414C965.149 580.274 945.186 617.065 919.263 649.777L919.262 649.777C894.221 681.391 864.219 708.457 830.083 730.24L830.352 730.662L830.083 730.24C806.807 745.096 775.885 738.273 761.022 714.986L760.601 715.255L761.022 714.986C746.166 691.711 752.99 660.788 776.277 645.925C827.251 613.397 864.449 565.837 883.847 508.403C911.861 425.454 896.862 334.279 843.725 264.516C826.988 242.545 831.236 211.169 853.207 194.432C866.882 184.015 884.21 181.731 899.372 186.784Z" stroke="#A79BF5" stroke-opacity="0.09"></path><path d="M658.053 63.7018L658.057 63.6944C678.25 70.5266 692.551 89.8576 692.014 112.28C691.343 139.891 668.42 161.728 640.815 161.069C585.923 159.748 530.63 176.273 485.124 207.608C438.111 239.978 403.579 285.762 385.251 340.024C362.759 406.617 367.55 477.983 398.738 540.975C429.926 603.966 483.777 651.037 550.36 673.527C576.524 682.365 590.577 710.74 581.738 736.904C572.9 763.068 544.525 777.121 518.361 768.282L518.361 768.282C471.931 752.603 429.942 728.279 393.564 695.991C358.441 664.818 330.021 627.598 309.107 585.344C288.191 543.099 275.811 497.931 272.317 451.098C268.694 402.587 274.815 354.455 290.495 308.025C315.779 233.149 363.467 169.938 428.408 125.23C459.617 103.738 493.833 87.3073 530.11 76.3908L529.966 75.9121L530.11 76.3908C566.899 65.3126 604.957 60.165 643.24 61.0962C648.415 61.218 653.397 62.1283 658.053 63.7018Z" stroke="#A79BF5" stroke-opacity="0.09"></path><path d="M1014.11 703.356L1014.11 703.356C1034.48 721.995 1035.88 753.629 1017.25 774.006C950.266 847.222 864.05 899.484 767.918 925.164C669.275 951.517 565.808 948.107 468.696 915.317C365.854 880.583 277.995 815.871 214.61 728.159C198.438 705.776 203.467 674.511 225.85 658.339C248.233 642.167 279.489 647.193 295.67 669.578C346.787 740.319 417.687 792.525 500.685 820.558C579.069 847.026 662.537 849.79 742.09 828.538C819.737 807.794 889.368 765.591 943.437 706.491C957.239 691.409 978.155 686.718 996.368 692.863L996.383 692.868L996.392 692.87C1002.77 695.026 1008.82 698.513 1014.11 703.356Z" stroke="#A79BF5" stroke-opacity="0.09"></path><path d="M321.417 146.625L321.791 146.957L321.417 146.625C284.276 188.483 256.272 236.846 238.193 290.373C229.355 316.537 200.98 330.59 174.816 321.751C148.652 312.913 134.599 284.538 143.438 258.374C165.822 192.098 200.532 132.166 246.612 80.2461C291.098 30.1111 344.243 -10.4464 404.549 -40.3034C464.865 -70.1579 529.333 -87.8336 596.171 -92.8124C665.402 -97.9775 734.108 -89.2472 800.385 -66.863L800.599 -66.7906L800.622 -66.8043C895.102 -34.8502 977.762 23.0883 1039.67 100.769C1099.96 176.417 1137.91 267.071 1149.37 362.932C1152.66 390.358 1133.08 415.246 1105.66 418.528L1105.72 419.024L1105.66 418.528C1078.24 421.812 1053.34 402.238 1050.06 374.822C1040.8 297.423 1010.15 224.216 961.45 163.113C911.492 100.425 844.728 53.6635 768.397 27.8859C714.87 9.80704 659.434 2.75548 603.623 6.91253C549.697 10.935 497.651 25.2021 448.93 49.3205C400.219 73.4415 357.321 106.174 321.417 146.625Z" stroke="#A79BF5" stroke-opacity="0.09"></path></svg> 