<?xml version="1.0" encoding="UTF-8"?> <svg xmlns="http://www.w3.org/2000/svg" width="20" height="20" viewBox="0 0 20 20" fill="none"><circle cx="10" cy="10" r="9.5" fill="#59CFAF" fill-opacity="0.03" stroke="#59CFAF"></circle><g clip-path="url(#clip0_281_29988)"><path d="M8.77091 4.20105C7.59675 4.20105 6.63997 5.15935 6.63997 6.3348C6.63997 7.05388 6.99872 7.68993 7.5456 8.07667C6.69898 8.80343 6.15997 9.87897 6.15997 11.08C6.15997 11.4712 6.2178 11.855 6.3306 12.2246C6.2922 12.2198 6.25368 12.2153 6.21528 12.2153C5.89608 12.2153 5.61033 12.4312 5.52153 12.7384C5.41353 13.1176 5.63446 13.5181 6.01606 13.6285L7.50856 14.0584C7.73042 14.252 7.97604 14.4186 8.237 14.56H4.95997C4.92817 14.5595 4.89659 14.5654 4.86708 14.5772C4.83757 14.5891 4.81071 14.6067 4.78806 14.629C4.76541 14.6514 4.74743 14.678 4.73515 14.7073C4.72287 14.7367 4.71655 14.7681 4.71655 14.8C4.71655 14.8318 4.72287 14.8632 4.73515 14.8926C4.74743 14.9219 4.76541 14.9485 4.78806 14.9709C4.81071 14.9932 4.83757 15.0108 4.86708 15.0227C4.89659 15.0345 4.92817 15.0404 4.95997 15.04H10.12H14.4606L13.9103 15.5903C13.8872 15.6124 13.8689 15.6389 13.8562 15.6682C13.8435 15.6975 13.8368 15.729 13.8365 15.761C13.8362 15.7929 13.8422 15.8246 13.8543 15.8541C13.8664 15.8837 13.8842 15.9106 13.9068 15.9331C13.9294 15.9557 13.9562 15.9736 13.9858 15.9856C14.0154 15.9977 14.047 16.0037 14.079 16.0034C14.1109 16.0031 14.1424 15.9964 14.1717 15.9837C14.2011 15.9711 14.2275 15.9527 14.2497 15.9296L15.2097 14.9696C15.2547 14.9246 15.2799 14.8636 15.2799 14.8C15.2799 14.7363 15.2547 14.6753 15.2097 14.6303L14.2497 13.6703C14.2273 13.6473 14.2005 13.629 14.171 13.6165C14.1415 13.604 14.1097 13.5976 14.0776 13.5976C14.0299 13.5976 13.9832 13.6119 13.9436 13.6385C13.904 13.6652 13.8733 13.7031 13.8553 13.7473C13.8373 13.7916 13.833 13.8401 13.8428 13.8869C13.8526 13.9336 13.8761 13.9763 13.9103 14.0096L14.4606 14.56H11.9926C13.2333 13.8919 14.08 12.5854 14.08 11.08C14.08 8.89596 12.304 7.11996 10.12 7.11996C9.32095 7.11996 8.57762 7.35933 7.95481 7.76777C7.45798 7.48328 7.11997 6.95168 7.11997 6.3348C7.11997 5.41841 7.85659 4.68105 8.77091 4.68105C9.41218 4.68105 9.96255 5.04662 10.2367 5.57871L9.56685 5.44464C9.53558 5.43753 9.5032 5.43675 9.47163 5.44236C9.44005 5.44797 9.40992 5.45984 9.38302 5.47729C9.35611 5.49473 9.33297 5.51739 9.31497 5.54393C9.29696 5.57047 9.28446 5.60034 9.27819 5.63179C9.27193 5.66324 9.27203 5.69563 9.27849 5.72704C9.28495 5.75845 9.29764 5.78825 9.31581 5.81467C9.33398 5.8411 9.35725 5.86361 9.38427 5.88089C9.41128 5.89817 9.44149 5.90986 9.4731 5.91527L10.6731 6.15527C10.7355 6.16768 10.8003 6.1548 10.8532 6.11946C10.9061 6.08413 10.9428 6.02923 10.9553 5.96683L11.1953 4.76683C11.2028 4.73148 11.2023 4.69489 11.1937 4.65977C11.1852 4.62466 11.1688 4.59193 11.1458 4.56403C11.1228 4.53614 11.0938 4.51379 11.061 4.49866C11.0282 4.48354 10.9924 4.47602 10.9562 4.47667C10.9009 4.47771 10.8476 4.49782 10.8054 4.53361C10.7632 4.5694 10.7347 4.61867 10.7247 4.67308L10.607 5.26042C10.2368 4.62805 9.55385 4.20105 8.77091 4.20105ZM10.12 7.59996C12.04 7.59996 13.6 9.15996 13.6 11.08C13.6 13 12.04 14.56 10.12 14.56C9.98797 14.56 9.87997 14.452 9.87997 14.32C9.87997 14.188 9.98797 14.08 10.12 14.08C10.2184 14.08 10.3169 14.075 10.4129 14.0654C10.4249 14.0654 10.4366 14.0631 10.4462 14.0631C10.4894 14.0583 10.5329 14.051 10.5761 14.0462C10.8305 14.0102 11.0655 13.943 11.2839 13.847C11.3199 13.8302 11.3534 13.8136 11.387 13.7992C12.4094 13.3192 13.12 12.28 13.12 11.08C13.12 9.42636 11.7736 8.07996 10.12 8.07996C8.46637 8.07996 7.11997 9.42636 7.11997 11.08C7.11997 11.6824 7.29772 12.2608 7.63372 12.7576L7.89997 11.8215C7.93117 11.7159 8.0274 11.6485 8.1306 11.6485C8.1522 11.6485 8.17603 11.6512 8.19763 11.656C8.32483 11.6944 8.39915 11.8265 8.36075 11.9537L7.93841 13.4321C7.92161 13.4945 7.88064 13.5448 7.82544 13.576C7.78944 13.5976 7.74858 13.607 7.70778 13.607C7.68618 13.607 7.66475 13.6048 7.64075 13.5976L6.14778 13.1678C6.02058 13.1294 5.94626 12.9978 5.98466 12.8706C6.01346 12.765 6.10968 12.6953 6.21528 12.6953C6.23688 12.6953 6.25837 12.6998 6.27997 12.7046L7.20153 12.9714C6.83433 12.4074 6.63997 11.7568 6.63997 11.08C6.63997 9.15996 8.19997 7.59996 10.12 7.59996Z" fill="#59CFAF"></path></g><defs><clipPath id="clip0_281_29988"><rect width="12" height="12" fill="white" transform="translate(4 4)"></rect></clipPath></defs></svg> 