<?xml version="1.0" encoding="UTF-8"?> <svg xmlns="http://www.w3.org/2000/svg" width="30" height="30" viewBox="0 0 30 30" fill="none"><circle cx="15" cy="15" r="15" fill="#59CFAF"></circle><g clip-path="url(#clip0_290_29989)"><path d="M11.76 25C11.7066 25 11.6531 24.9887 11.6039 24.9634C11.4408 24.8847 11.362 24.6977 11.4183 24.5261L14.1408 16.36H11.4C11.2791 16.36 11.168 16.2995 11.1005 16.1997C11.033 16.0998 11.0217 15.9733 11.0681 15.8622L14.6681 7.22219C14.723 7.08719 14.8552 7 15 7H18.42C18.5424 7 18.6563 7.06188 18.7224 7.16453C18.7885 7.26719 18.7983 7.39516 18.7491 7.50625L15.9155 13.84H18.6C18.7322 13.84 18.8531 13.9131 18.9164 14.0284C18.9797 14.1452 18.9741 14.2858 18.901 14.3969L12.061 24.8369C11.9921 24.9423 11.8781 25 11.76 25Z" fill="#FFFDFD"></path></g><defs><clipPath id="clip0_290_29989"><rect width="18" height="18" fill="white" transform="translate(6 7)"></rect></clipPath></defs></svg> 