<?xml version="1.0" encoding="UTF-8"?> <svg xmlns="http://www.w3.org/2000/svg" width="548" height="288" viewBox="0 0 548 288" fill="none"><rect x="0.5" y="0.5" width="547" height="287" rx="19.5" fill="white" stroke="#EEECEC"></rect><circle cx="261" cy="144" r="122" stroke="#A79BF5" stroke-width="4" stroke-dasharray="15 15"></circle><path d="M78.0557 100.75L77.4057 104.025H78.7057V108.025H73.7807V103.9L74.8307 100.75H78.0557ZM84.2807 100.75L83.6307 104.025H84.9307V108.025H80.0057V103.9L81.0557 100.75H84.2807ZM93.2055 101.25H97.6805L99.3055 106.725L100.955 101.25H105.43L102.43 109.725L103.705 113.35L107.53 101.25H112.83L106.13 119H101.905L99.3055 112.65L96.7305 119H92.5055L85.8055 101.25H91.0805L94.9305 113.35L96.1555 109.725L93.2055 101.25ZM118.39 119.25C117.24 119.25 116.215 119.075 115.315 118.725C114.415 118.358 113.657 117.867 113.04 117.25C112.44 116.633 111.982 115.925 111.665 115.125C111.348 114.325 111.19 113.483 111.19 112.6C111.19 111.333 111.465 110.175 112.015 109.125C112.565 108.058 113.373 107.208 114.44 106.575C115.507 105.925 116.823 105.6 118.39 105.6C119.957 105.6 121.273 105.917 122.34 106.55C123.407 107.183 124.215 108.017 124.765 109.05C125.315 110.083 125.59 111.208 125.59 112.425C125.59 112.675 125.573 112.933 125.54 113.2C125.523 113.45 125.498 113.675 125.465 113.875H116.24C116.273 114.342 116.398 114.725 116.615 115.025C116.848 115.308 117.132 115.517 117.465 115.65C117.815 115.783 118.173 115.85 118.54 115.85C119.057 115.85 119.54 115.733 119.99 115.5C120.457 115.267 120.765 114.942 120.915 114.525L124.94 115.675C124.59 116.375 124.098 116.992 123.465 117.525C122.848 118.058 122.115 118.483 121.265 118.8C120.415 119.1 119.457 119.25 118.39 119.25ZM116.14 111.025H120.49C120.44 110.592 120.315 110.225 120.115 109.925C119.932 109.625 119.682 109.392 119.365 109.225C119.065 109.058 118.715 108.975 118.315 108.975C117.915 108.975 117.557 109.058 117.24 109.225C116.94 109.392 116.69 109.625 116.49 109.925C116.307 110.225 116.19 110.592 116.14 111.025ZM125.869 108.025L126.519 104.75H125.219V100.75H130.144V104.875L129.094 108.025H125.869ZM139.858 109.9C138.942 109.9 138.108 110 137.358 110.2C136.608 110.4 136.05 110.733 135.683 111.2V119H130.933V105.85H135.283V108.35C135.75 107.467 136.333 106.792 137.033 106.325C137.733 105.842 138.475 105.6 139.258 105.6C139.442 105.6 139.567 105.6 139.633 105.6C139.717 105.6 139.792 105.608 139.858 105.625V109.9ZM147.809 119.25C146.659 119.25 145.634 119.075 144.734 118.725C143.834 118.358 143.075 117.867 142.459 117.25C141.859 116.633 141.4 115.925 141.084 115.125C140.767 114.325 140.609 113.483 140.609 112.6C140.609 111.333 140.884 110.175 141.434 109.125C141.984 108.058 142.792 107.208 143.859 106.575C144.925 105.925 146.242 105.6 147.809 105.6C149.375 105.6 150.692 105.917 151.759 106.55C152.825 107.183 153.634 108.017 154.184 109.05C154.734 110.083 155.009 111.208 155.009 112.425C155.009 112.675 154.992 112.933 154.959 113.2C154.942 113.45 154.917 113.675 154.884 113.875H145.659C145.692 114.342 145.817 114.725 146.034 115.025C146.267 115.308 146.55 115.517 146.884 115.65C147.234 115.783 147.592 115.85 147.959 115.85C148.475 115.85 148.959 115.733 149.409 115.5C149.875 115.267 150.184 114.942 150.334 114.525L154.359 115.675C154.009 116.375 153.517 116.992 152.884 117.525C152.267 118.058 151.534 118.483 150.684 118.8C149.834 119.1 148.875 119.25 147.809 119.25ZM145.559 111.025H149.909C149.859 110.592 149.734 110.225 149.534 109.925C149.35 109.625 149.1 109.392 148.784 109.225C148.484 109.058 148.134 108.975 147.734 108.975C147.334 108.975 146.975 109.058 146.659 109.225C146.359 109.392 146.109 109.625 145.909 109.925C145.725 110.225 145.609 110.592 145.559 111.025ZM354.738 119.25C353.755 119.25 352.905 119.058 352.188 118.675C351.471 118.275 350.905 117.7 350.488 116.95V119H346.363V100.75H351.113V107.8C351.496 107.083 352.038 106.542 352.738 106.175C353.438 105.792 354.263 105.6 355.213 105.6C356.013 105.6 356.755 105.775 357.438 106.125C358.121 106.458 358.713 106.933 359.213 107.55C359.73 108.167 360.13 108.9 360.413 109.75C360.696 110.583 360.838 111.492 360.838 112.475C360.838 113.442 360.68 114.342 360.363 115.175C360.063 115.992 359.638 116.708 359.088 117.325C358.555 117.942 357.913 118.417 357.163 118.75C356.43 119.083 355.621 119.25 354.738 119.25ZM353.363 115.25C353.746 115.25 354.096 115.183 354.413 115.05C354.73 114.917 355.005 114.733 355.238 114.5C355.471 114.25 355.646 113.958 355.763 113.625C355.896 113.292 355.963 112.917 355.963 112.5C355.963 111.967 355.855 111.483 355.638 111.05C355.438 110.6 355.155 110.25 354.788 110C354.438 109.733 354.03 109.6 353.563 109.6C353.23 109.6 352.905 109.683 352.588 109.85C352.271 110.017 351.98 110.25 351.713 110.55C351.463 110.833 351.263 111.167 351.113 111.55V113.9C351.263 114.117 351.421 114.317 351.588 114.5C351.771 114.667 351.955 114.808 352.138 114.925C352.321 115.025 352.513 115.108 352.713 115.175C352.93 115.225 353.146 115.25 353.363 115.25ZM361.986 120.325C362.369 120.458 362.719 120.558 363.036 120.625C363.369 120.708 363.669 120.75 363.936 120.75C364.286 120.75 364.577 120.683 364.811 120.55C365.044 120.433 365.227 120.242 365.361 119.975C365.494 119.708 365.577 119.383 365.611 119L360.836 105.85H365.711L368.211 114.125L370.236 105.85H374.661L370.211 120.575C369.961 121.425 369.552 122.167 368.986 122.8C368.419 123.45 367.744 123.95 366.961 124.3C366.177 124.667 365.336 124.85 364.436 124.85C364.019 124.85 363.602 124.808 363.186 124.725C362.786 124.658 362.386 124.542 361.986 124.375V120.325ZM389.357 119.25C388.374 119.25 387.524 119.058 386.807 118.675C386.091 118.275 385.524 117.7 385.107 116.95V119H380.982V100.75H385.732V107.8C386.116 107.083 386.657 106.542 387.357 106.175C388.057 105.792 388.882 105.6 389.832 105.6C390.632 105.6 391.374 105.775 392.057 106.125C392.741 106.458 393.332 106.933 393.832 107.55C394.349 108.167 394.749 108.9 395.032 109.75C395.316 110.583 395.457 111.492 395.457 112.475C395.457 113.442 395.299 114.342 394.982 115.175C394.682 115.992 394.257 116.708 393.707 117.325C393.174 117.942 392.532 118.417 391.782 118.75C391.049 119.083 390.241 119.25 389.357 119.25ZM387.982 115.25C388.366 115.25 388.716 115.183 389.032 115.05C389.349 114.917 389.624 114.733 389.857 114.5C390.091 114.25 390.266 113.958 390.382 113.625C390.516 113.292 390.582 112.917 390.582 112.5C390.582 111.967 390.474 111.483 390.257 111.05C390.057 110.6 389.774 110.25 389.407 110C389.057 109.733 388.649 109.6 388.182 109.6C387.849 109.6 387.524 109.683 387.207 109.85C386.891 110.017 386.599 110.25 386.332 110.55C386.082 110.833 385.882 111.167 385.732 111.55V113.9C385.882 114.117 386.041 114.317 386.207 114.5C386.391 114.667 386.574 114.808 386.757 114.925C386.941 115.025 387.132 115.108 387.332 115.175C387.549 115.225 387.766 115.25 387.982 115.25ZM397.044 114.5V105.85H401.794V113.425C401.794 113.992 401.919 114.442 402.169 114.775C402.435 115.092 402.794 115.25 403.244 115.25C403.494 115.25 403.744 115.217 403.994 115.15C404.244 115.083 404.494 114.95 404.744 114.75C405.01 114.55 405.269 114.267 405.519 113.9V105.85H410.269V113.75C410.269 114.2 410.335 114.517 410.469 114.7C410.602 114.867 410.835 114.967 411.169 115V119C410.752 119.083 410.377 119.142 410.044 119.175C409.71 119.225 409.419 119.25 409.169 119.25C408.369 119.25 407.735 119.1 407.269 118.8C406.802 118.5 406.502 118.042 406.369 117.425L406.269 116.95C405.652 117.767 404.91 118.358 404.044 118.725C403.194 119.075 402.227 119.25 401.144 119.25C399.827 119.25 398.81 118.842 398.094 118.025C397.394 117.208 397.044 116.033 397.044 114.5ZM413.111 119V105.85H417.861V119H413.111ZM413.111 104.75V100.75H417.861V104.75H413.111ZM420.164 100.75H424.914V113.775C424.914 114.258 425.014 114.633 425.214 114.9C425.431 115.15 425.739 115.275 426.139 115.275C426.339 115.275 426.556 115.242 426.789 115.175C427.023 115.108 427.239 115.017 427.439 114.9L428.039 118.4C427.473 118.667 426.831 118.875 426.114 119.025C425.414 119.175 424.748 119.25 424.114 119.25C422.848 119.25 421.873 118.925 421.189 118.275C420.506 117.608 420.164 116.667 420.164 115.45V100.75ZM428.451 112.4C428.451 111.1 428.693 109.942 429.176 108.925C429.676 107.892 430.36 107.083 431.226 106.5C432.093 105.9 433.085 105.6 434.201 105.6C435.051 105.6 435.835 105.8 436.551 106.2C437.268 106.583 437.81 107.117 438.176 107.8V100.75H442.926V113.75C442.926 114.2 442.993 114.517 443.126 114.7C443.26 114.867 443.493 114.967 443.826 115V119C443.01 119.167 442.343 119.25 441.826 119.25C441.026 119.25 440.393 119.1 439.926 118.8C439.46 118.5 439.16 118.042 439.026 117.425L438.926 116.95C438.476 117.75 437.868 118.333 437.101 118.7C436.335 119.067 435.518 119.25 434.651 119.25C433.751 119.25 432.918 119.083 432.151 118.75C431.401 118.417 430.743 117.95 430.176 117.35C429.626 116.733 429.201 116.008 428.901 115.175C428.601 114.325 428.451 113.4 428.451 112.4ZM438.201 113.9V111.55C438.051 111.167 437.843 110.833 437.576 110.55C437.326 110.25 437.043 110.017 436.726 109.85C436.41 109.683 436.085 109.6 435.751 109.6C435.401 109.6 435.076 109.675 434.776 109.825C434.493 109.975 434.243 110.183 434.026 110.45C433.81 110.717 433.643 111.025 433.526 111.375C433.41 111.725 433.351 112.1 433.351 112.5C433.351 112.917 433.41 113.292 433.526 113.625C433.66 113.958 433.843 114.25 434.076 114.5C434.31 114.733 434.585 114.917 434.901 115.05C435.218 115.183 435.568 115.25 435.951 115.25C436.185 115.25 436.401 115.225 436.601 115.175C436.801 115.108 436.993 115.025 437.176 114.925C437.36 114.808 437.535 114.667 437.701 114.5C437.885 114.317 438.051 114.117 438.201 113.9ZM445.777 119V105.85H450.527V119H445.777ZM445.777 104.75V100.75H450.527V104.75H445.777ZM466.155 119H461.405V111.6C461.405 110.95 461.255 110.483 460.955 110.2C460.672 109.9 460.339 109.75 459.955 109.75C459.689 109.75 459.405 109.833 459.105 110C458.805 110.15 458.53 110.367 458.28 110.65C458.03 110.933 457.83 111.258 457.68 111.625V119H452.93V105.85H457.205V107.8C457.522 107.317 457.922 106.917 458.405 106.6C458.889 106.267 459.447 106.017 460.08 105.85C460.714 105.683 461.405 105.6 462.155 105.6C463.055 105.6 463.772 105.758 464.305 106.075C464.839 106.392 465.239 106.8 465.505 107.3C465.772 107.8 465.947 108.325 466.03 108.875C466.114 109.408 466.155 109.9 466.155 110.35V119ZM473.508 119C472.658 119 471.874 118.833 471.158 118.5C470.458 118.167 469.858 117.7 469.358 117.1C468.858 116.5 468.466 115.8 468.183 115C467.916 114.2 467.783 113.333 467.783 112.4C467.783 111.417 467.933 110.517 468.233 109.7C468.533 108.867 468.949 108.142 469.483 107.525C470.033 106.908 470.683 106.433 471.433 106.1C472.183 105.767 473.008 105.6 473.908 105.6C474.841 105.6 475.666 105.792 476.383 106.175C477.116 106.542 477.691 107.083 478.108 107.8V105.85H482.233V117.8C482.233 119.167 481.899 120.358 481.233 121.375C480.566 122.392 479.633 123.175 478.433 123.725C477.233 124.292 475.833 124.575 474.233 124.575C472.849 124.575 471.633 124.358 470.583 123.925C469.549 123.492 468.633 122.867 467.833 122.05L470.333 119.45C470.816 119.9 471.391 120.275 472.058 120.575C472.741 120.892 473.466 121.05 474.233 121.05C474.816 121.05 475.349 120.942 475.833 120.725C476.333 120.508 476.733 120.158 477.033 119.675C477.333 119.208 477.483 118.583 477.483 117.8V116.95C477.116 117.633 476.566 118.15 475.833 118.5C475.116 118.833 474.341 119 473.508 119ZM475.208 115.25C475.441 115.25 475.658 115.225 475.858 115.175C476.074 115.108 476.274 115.025 476.458 114.925C476.641 114.808 476.816 114.667 476.983 114.5C477.166 114.317 477.333 114.117 477.483 113.9V111.55C477.333 111.15 477.124 110.808 476.858 110.525C476.591 110.225 476.299 110 475.983 109.85C475.666 109.683 475.341 109.6 475.008 109.6C474.674 109.6 474.358 109.675 474.058 109.825C473.774 109.975 473.524 110.192 473.308 110.475C473.091 110.742 472.924 111.05 472.808 111.4C472.691 111.75 472.633 112.125 472.633 112.525C472.633 112.925 472.691 113.292 472.808 113.625C472.941 113.958 473.124 114.25 473.358 114.5C473.591 114.733 473.866 114.917 474.183 115.05C474.499 115.183 474.841 115.25 475.208 115.25ZM146.546 151.25C145.596 151.25 144.771 151.067 144.071 150.7C143.371 150.317 142.829 149.767 142.446 149.05V156.325H137.696V137.85H141.821V139.825C142.288 139.108 142.863 138.558 143.546 138.175C144.246 137.792 145.088 137.6 146.071 137.6C146.954 137.6 147.763 137.767 148.496 138.1C149.229 138.433 149.871 138.908 150.421 139.525C150.971 140.142 151.396 140.858 151.696 141.675C151.996 142.492 152.146 143.392 152.146 144.375C152.146 145.692 151.904 146.867 151.421 147.9C150.938 148.933 150.271 149.75 149.421 150.35C148.588 150.95 147.629 151.25 146.546 151.25ZM144.896 147.25C145.246 147.25 145.563 147.175 145.846 147.025C146.146 146.875 146.404 146.667 146.621 146.4C146.838 146.133 147.004 145.825 147.121 145.475C147.238 145.125 147.296 144.75 147.296 144.35C147.296 143.933 147.229 143.558 147.096 143.225C146.979 142.892 146.804 142.608 146.571 142.375C146.338 142.125 146.063 141.933 145.746 141.8C145.429 141.667 145.079 141.6 144.696 141.6C144.479 141.6 144.263 141.633 144.046 141.7C143.846 141.75 143.654 141.833 143.471 141.95C143.288 142.05 143.104 142.183 142.921 142.35C142.754 142.517 142.596 142.717 142.446 142.95V145.225C142.596 145.608 142.796 145.958 143.046 146.275C143.313 146.575 143.604 146.817 143.921 147C144.238 147.167 144.563 147.25 144.896 147.25ZM160.358 151.25C159.208 151.25 158.183 151.075 157.283 150.725C156.383 150.358 155.624 149.867 155.008 149.25C154.408 148.633 153.949 147.925 153.633 147.125C153.316 146.325 153.158 145.483 153.158 144.6C153.158 143.333 153.433 142.175 153.983 141.125C154.533 140.058 155.341 139.208 156.408 138.575C157.474 137.925 158.791 137.6 160.358 137.6C161.924 137.6 163.241 137.917 164.308 138.55C165.374 139.183 166.183 140.017 166.733 141.05C167.283 142.083 167.558 143.208 167.558 144.425C167.558 144.675 167.541 144.933 167.508 145.2C167.491 145.45 167.466 145.675 167.433 145.875H158.208C158.241 146.342 158.366 146.725 158.583 147.025C158.816 147.308 159.099 147.517 159.433 147.65C159.783 147.783 160.141 147.85 160.508 147.85C161.024 147.85 161.508 147.733 161.958 147.5C162.424 147.267 162.733 146.942 162.883 146.525L166.908 147.675C166.558 148.375 166.066 148.992 165.433 149.525C164.816 150.058 164.083 150.483 163.233 150.8C162.383 151.1 161.424 151.25 160.358 151.25ZM158.108 143.025H162.458C162.408 142.592 162.283 142.225 162.083 141.925C161.899 141.625 161.649 141.392 161.333 141.225C161.033 141.058 160.683 140.975 160.283 140.975C159.883 140.975 159.524 141.058 159.208 141.225C158.908 141.392 158.658 141.625 158.458 141.925C158.274 142.225 158.158 142.592 158.108 143.025ZM178.042 141.9C177.125 141.9 176.292 142 175.542 142.2C174.792 142.4 174.234 142.733 173.867 143.2V151H169.117V137.85H173.467V140.35C173.934 139.467 174.517 138.792 175.217 138.325C175.917 137.842 176.659 137.6 177.442 137.6C177.625 137.6 177.75 137.6 177.817 137.6C177.9 137.6 177.975 137.608 178.042 137.625V141.9ZM184.792 151.25C183.642 151.25 182.509 151.067 181.392 150.7C180.292 150.317 179.359 149.767 178.592 149.05L180.217 146.125C181.034 146.658 181.817 147.075 182.567 147.375C183.334 147.675 184.026 147.825 184.642 147.825C184.992 147.825 185.251 147.783 185.417 147.7C185.584 147.6 185.667 147.442 185.667 147.225C185.667 147.075 185.609 146.95 185.492 146.85C185.376 146.75 185.184 146.65 184.917 146.55C184.667 146.45 184.342 146.342 183.942 146.225C182.909 145.858 182.042 145.517 181.342 145.2C180.659 144.883 180.142 144.5 179.792 144.05C179.459 143.583 179.292 142.967 179.292 142.2C179.292 141.3 179.517 140.508 179.967 139.825C180.417 139.125 181.059 138.575 181.892 138.175C182.742 137.775 183.759 137.575 184.942 137.575C185.826 137.575 186.709 137.717 187.592 138C188.492 138.267 189.359 138.758 190.192 139.475L188.392 142.375C187.559 141.858 186.851 141.492 186.267 141.275C185.701 141.058 185.192 140.95 184.742 140.95C184.526 140.95 184.334 140.975 184.167 141.025C184.017 141.075 183.901 141.15 183.817 141.25C183.734 141.35 183.692 141.483 183.692 141.65C183.692 141.817 183.751 141.958 183.867 142.075C183.984 142.175 184.167 142.275 184.417 142.375C184.667 142.458 184.984 142.558 185.367 142.675C186.501 143.008 187.426 143.35 188.142 143.7C188.859 144.033 189.384 144.442 189.717 144.925C190.067 145.408 190.242 146.042 190.242 146.825C190.242 148.208 189.751 149.292 188.767 150.075C187.801 150.858 186.476 151.25 184.792 151.25ZM198.517 151.25C197.35 151.25 196.317 151.067 195.417 150.7C194.517 150.333 193.758 149.833 193.142 149.2C192.542 148.55 192.083 147.817 191.767 147C191.467 146.183 191.317 145.325 191.317 144.425C191.317 143.525 191.467 142.667 191.767 141.85C192.083 141.017 192.542 140.283 193.142 139.65C193.758 139.017 194.517 138.517 195.417 138.15C196.317 137.783 197.35 137.6 198.517 137.6C199.7 137.6 200.733 137.783 201.617 138.15C202.517 138.517 203.267 139.017 203.867 139.65C204.483 140.283 204.942 141.017 205.242 141.85C205.558 142.667 205.717 143.525 205.717 144.425C205.717 145.325 205.558 146.183 205.242 147C204.942 147.817 204.483 148.55 203.867 149.2C203.267 149.833 202.517 150.333 201.617 150.7C200.733 151.067 199.7 151.25 198.517 151.25ZM196.192 144.425C196.192 145.008 196.292 145.517 196.492 145.95C196.692 146.367 196.967 146.692 197.317 146.925C197.667 147.142 198.067 147.25 198.517 147.25C198.967 147.25 199.367 147.142 199.717 146.925C200.067 146.692 200.342 146.367 200.542 145.95C200.742 145.517 200.842 145.008 200.842 144.425C200.842 143.842 200.742 143.342 200.542 142.925C200.342 142.492 200.067 142.167 199.717 141.95C199.367 141.717 198.967 141.6 198.517 141.6C198.067 141.6 197.667 141.717 197.317 141.95C196.967 142.167 196.692 142.492 196.492 142.925C196.292 143.342 196.192 143.842 196.192 144.425ZM220.623 151H215.873V143.6C215.873 142.95 215.723 142.483 215.423 142.2C215.14 141.9 214.807 141.75 214.423 141.75C214.157 141.75 213.873 141.833 213.573 142C213.273 142.15 212.998 142.367 212.748 142.65C212.498 142.933 212.298 143.258 212.148 143.625V151H207.398V137.85H211.673V139.8C211.99 139.317 212.39 138.917 212.873 138.6C213.357 138.267 213.915 138.017 214.548 137.85C215.182 137.683 215.873 137.6 216.623 137.6C217.523 137.6 218.24 137.758 218.773 138.075C219.307 138.392 219.707 138.8 219.973 139.3C220.24 139.8 220.415 140.325 220.498 140.875C220.582 141.408 220.623 141.9 220.623 142.35V151ZM222.201 147.025C222.201 146.142 222.442 145.367 222.926 144.7C223.409 144.017 224.076 143.483 224.926 143.1C225.792 142.717 226.776 142.525 227.876 142.525C228.392 142.525 228.876 142.567 229.326 142.65C229.792 142.733 230.192 142.858 230.526 143.025V142.625C230.526 142.008 230.342 141.55 229.976 141.25C229.626 140.95 229.051 140.8 228.251 140.8C227.517 140.8 226.826 140.925 226.176 141.175C225.542 141.408 224.876 141.758 224.176 142.225L222.801 139.275C223.684 138.708 224.609 138.292 225.576 138.025C226.559 137.742 227.609 137.6 228.726 137.6C230.809 137.6 232.417 138.075 233.551 139.025C234.701 139.958 235.276 141.35 235.276 143.2V145.75C235.276 146.2 235.342 146.517 235.476 146.7C235.609 146.867 235.842 146.967 236.176 147V151C235.792 151.083 235.426 151.142 235.076 151.175C234.742 151.225 234.442 151.25 234.176 151.25C233.326 151.25 232.676 151.1 232.226 150.8C231.792 150.483 231.509 150.025 231.376 149.425L231.276 148.95C230.692 149.7 230.017 150.275 229.251 150.675C228.484 151.058 227.667 151.25 226.801 151.25C225.934 151.25 225.151 151.067 224.451 150.7C223.751 150.333 223.201 149.833 222.801 149.2C222.401 148.55 222.201 147.825 222.201 147.025ZM229.901 147.35C230.084 147.217 230.234 147.075 230.351 146.925C230.467 146.758 230.526 146.592 230.526 146.425V145.45C230.259 145.35 229.951 145.267 229.601 145.2C229.267 145.133 228.967 145.1 228.701 145.1C228.134 145.1 227.651 145.242 227.251 145.525C226.867 145.808 226.676 146.167 226.676 146.6C226.676 146.833 226.742 147.05 226.876 147.25C227.009 147.433 227.192 147.583 227.426 147.7C227.659 147.8 227.926 147.85 228.226 147.85C228.509 147.85 228.801 147.808 229.101 147.725C229.417 147.625 229.684 147.5 229.901 147.35ZM237.791 132.75H242.541V145.775C242.541 146.258 242.641 146.633 242.841 146.9C243.058 147.15 243.366 147.275 243.766 147.275C243.966 147.275 244.183 147.242 244.416 147.175C244.65 147.108 244.866 147.017 245.066 146.9L245.666 150.4C245.1 150.667 244.458 150.875 243.741 151.025C243.041 151.175 242.375 151.25 241.741 151.25C240.475 151.25 239.5 150.925 238.816 150.275C238.133 149.608 237.791 148.667 237.791 147.45V132.75ZM258.893 151.25C257.727 151.25 256.693 151.067 255.793 150.7C254.91 150.333 254.16 149.833 253.543 149.2C252.927 148.55 252.46 147.817 252.143 147C251.827 146.183 251.668 145.325 251.668 144.425C251.668 143.225 251.943 142.108 252.493 141.075C253.06 140.025 253.877 139.183 254.943 138.55C256.027 137.917 257.343 137.6 258.893 137.6C260.477 137.6 261.81 137.933 262.893 138.6C263.977 139.267 264.785 140.125 265.318 141.175L260.693 142.575C260.477 142.258 260.21 142.017 259.893 141.85C259.593 141.683 259.252 141.6 258.868 141.6C258.435 141.6 258.043 141.717 257.693 141.95C257.343 142.167 257.06 142.483 256.843 142.9C256.643 143.317 256.543 143.825 256.543 144.425C256.543 145.008 256.643 145.517 256.843 145.95C257.06 146.367 257.343 146.692 257.693 146.925C258.043 147.142 258.435 147.25 258.868 147.25C259.135 147.25 259.377 147.217 259.593 147.15C259.81 147.067 260.01 146.95 260.193 146.8C260.393 146.65 260.56 146.475 260.693 146.275L265.318 147.675C264.968 148.375 264.485 148.992 263.868 149.525C263.268 150.058 262.552 150.483 261.718 150.8C260.902 151.1 259.96 151.25 258.893 151.25ZM273.175 151.25C272.008 151.25 270.975 151.067 270.075 150.7C269.175 150.333 268.417 149.833 267.8 149.2C267.2 148.55 266.742 147.817 266.425 147C266.125 146.183 265.975 145.325 265.975 144.425C265.975 143.525 266.125 142.667 266.425 141.85C266.742 141.017 267.2 140.283 267.8 139.65C268.417 139.017 269.175 138.517 270.075 138.15C270.975 137.783 272.008 137.6 273.175 137.6C274.358 137.6 275.392 137.783 276.275 138.15C277.175 138.517 277.925 139.017 278.525 139.65C279.142 140.283 279.6 141.017 279.9 141.85C280.217 142.667 280.375 143.525 280.375 144.425C280.375 145.325 280.217 146.183 279.9 147C279.6 147.817 279.142 148.55 278.525 149.2C277.925 149.833 277.175 150.333 276.275 150.7C275.392 151.067 274.358 151.25 273.175 151.25ZM270.85 144.425C270.85 145.008 270.95 145.517 271.15 145.95C271.35 146.367 271.625 146.692 271.975 146.925C272.325 147.142 272.725 147.25 273.175 147.25C273.625 147.25 274.025 147.142 274.375 146.925C274.725 146.692 275 146.367 275.2 145.95C275.4 145.517 275.5 145.008 275.5 144.425C275.5 143.842 275.4 143.342 275.2 142.925C275 142.492 274.725 142.167 274.375 141.95C274.025 141.717 273.625 141.6 273.175 141.6C272.725 141.6 272.325 141.717 271.975 141.95C271.625 142.167 271.35 142.492 271.15 142.925C270.95 143.342 270.85 143.842 270.85 144.425ZM295.281 151H290.531V143.6C290.531 142.95 290.381 142.483 290.081 142.2C289.798 141.9 289.465 141.75 289.081 141.75C288.815 141.75 288.531 141.833 288.231 142C287.931 142.15 287.656 142.367 287.406 142.65C287.156 142.933 286.956 143.258 286.806 143.625V151H282.056V137.85H286.331V139.8C286.648 139.317 287.048 138.917 287.531 138.6C288.015 138.267 288.573 138.017 289.206 137.85C289.84 137.683 290.531 137.6 291.281 137.6C292.181 137.6 292.898 137.758 293.431 138.075C293.965 138.392 294.365 138.8 294.631 139.3C294.898 139.8 295.073 140.325 295.156 140.875C295.24 141.408 295.281 141.9 295.281 142.35V151ZM310.809 151H306.059V143.6C306.059 142.95 305.909 142.483 305.609 142.2C305.325 141.9 304.992 141.75 304.609 141.75C304.342 141.75 304.059 141.833 303.759 142C303.459 142.15 303.184 142.367 302.934 142.65C302.684 142.933 302.484 143.258 302.334 143.625V151H297.584V137.85H301.859V139.8C302.175 139.317 302.575 138.917 303.059 138.6C303.542 138.267 304.1 138.017 304.734 137.85C305.367 137.683 306.059 137.6 306.809 137.6C307.709 137.6 308.425 137.758 308.959 138.075C309.492 138.392 309.892 138.8 310.159 139.3C310.425 139.8 310.6 140.325 310.684 140.875C310.767 141.408 310.809 141.9 310.809 142.35V151ZM319.586 151.25C318.436 151.25 317.411 151.075 316.511 150.725C315.611 150.358 314.853 149.867 314.236 149.25C313.636 148.633 313.178 147.925 312.861 147.125C312.544 146.325 312.386 145.483 312.386 144.6C312.386 143.333 312.661 142.175 313.211 141.125C313.761 140.058 314.569 139.208 315.636 138.575C316.703 137.925 318.019 137.6 319.586 137.6C321.153 137.6 322.469 137.917 323.536 138.55C324.603 139.183 325.411 140.017 325.961 141.05C326.511 142.083 326.786 143.208 326.786 144.425C326.786 144.675 326.769 144.933 326.736 145.2C326.719 145.45 326.694 145.675 326.661 145.875H317.436C317.469 146.342 317.594 146.725 317.811 147.025C318.044 147.308 318.328 147.517 318.661 147.65C319.011 147.783 319.369 147.85 319.736 147.85C320.253 147.85 320.736 147.733 321.186 147.5C321.653 147.267 321.961 146.942 322.111 146.525L326.136 147.675C325.786 148.375 325.294 148.992 324.661 149.525C324.044 150.058 323.311 150.483 322.461 150.8C321.611 151.1 320.653 151.25 319.586 151.25ZM317.336 143.025H321.686C321.636 142.592 321.511 142.225 321.311 141.925C321.128 141.625 320.878 141.392 320.561 141.225C320.261 141.058 319.911 140.975 319.511 140.975C319.111 140.975 318.753 141.058 318.436 141.225C318.136 141.392 317.886 141.625 317.686 141.925C317.503 142.225 317.386 142.592 317.336 143.025ZM334.846 151.25C333.679 151.25 332.646 151.067 331.746 150.7C330.862 150.333 330.112 149.833 329.496 149.2C328.879 148.55 328.412 147.817 328.096 147C327.779 146.183 327.621 145.325 327.621 144.425C327.621 143.225 327.896 142.108 328.446 141.075C329.012 140.025 329.829 139.183 330.896 138.55C331.979 137.917 333.296 137.6 334.846 137.6C336.429 137.6 337.762 137.933 338.846 138.6C339.929 139.267 340.737 140.125 341.271 141.175L336.646 142.575C336.429 142.258 336.162 142.017 335.846 141.85C335.546 141.683 335.204 141.6 334.821 141.6C334.387 141.6 333.996 141.717 333.646 141.95C333.296 142.167 333.012 142.483 332.796 142.9C332.596 143.317 332.496 143.825 332.496 144.425C332.496 145.008 332.596 145.517 332.796 145.95C333.012 146.367 333.296 146.692 333.646 146.925C333.996 147.142 334.387 147.25 334.821 147.25C335.087 147.25 335.329 147.217 335.546 147.15C335.762 147.067 335.962 146.95 336.146 146.8C336.346 146.65 336.512 146.475 336.646 146.275L341.271 147.675C340.921 148.375 340.437 148.992 339.821 149.525C339.221 150.058 338.504 150.483 337.671 150.8C336.854 151.1 335.912 151.25 334.846 151.25ZM351.999 150.275C351.566 150.458 351.099 150.633 350.599 150.8C350.116 150.95 349.616 151.067 349.099 151.15C348.599 151.233 348.108 151.275 347.624 151.275C346.908 151.275 346.249 151.158 345.649 150.925C345.049 150.675 344.566 150.275 344.199 149.725C343.849 149.158 343.674 148.4 343.674 147.45V141.425H342.049V137.85H343.674V133.725H348.424V137.85H350.999V141.425H348.424V145.775C348.424 146.208 348.516 146.517 348.699 146.7C348.883 146.867 349.133 146.95 349.449 146.95C349.683 146.95 349.949 146.908 350.249 146.825C350.549 146.742 350.849 146.642 351.149 146.525L351.999 150.275ZM353.346 151V137.85H358.096V151H353.346ZM353.346 136.75V132.75H358.096V136.75H353.346ZM366.974 151.25C365.807 151.25 364.774 151.067 363.874 150.7C362.974 150.333 362.215 149.833 361.599 149.2C360.999 148.55 360.54 147.817 360.224 147C359.924 146.183 359.774 145.325 359.774 144.425C359.774 143.525 359.924 142.667 360.224 141.85C360.54 141.017 360.999 140.283 361.599 139.65C362.215 139.017 362.974 138.517 363.874 138.15C364.774 137.783 365.807 137.6 366.974 137.6C368.157 137.6 369.19 137.783 370.074 138.15C370.974 138.517 371.724 139.017 372.324 139.65C372.94 140.283 373.399 141.017 373.699 141.85C374.015 142.667 374.174 143.525 374.174 144.425C374.174 145.325 374.015 146.183 373.699 147C373.399 147.817 372.94 148.55 372.324 149.2C371.724 149.833 370.974 150.333 370.074 150.7C369.19 151.067 368.157 151.25 366.974 151.25ZM364.649 144.425C364.649 145.008 364.749 145.517 364.949 145.95C365.149 146.367 365.424 146.692 365.774 146.925C366.124 147.142 366.524 147.25 366.974 147.25C367.424 147.25 367.824 147.142 368.174 146.925C368.524 146.692 368.799 146.367 368.999 145.95C369.199 145.517 369.299 145.008 369.299 144.425C369.299 143.842 369.199 143.342 368.999 142.925C368.799 142.492 368.524 142.167 368.174 141.95C367.824 141.717 367.424 141.6 366.974 141.6C366.524 141.6 366.124 141.717 365.774 141.95C365.424 142.167 365.149 142.492 364.949 142.925C364.749 143.342 364.649 143.842 364.649 144.425ZM389.08 151H384.33V143.6C384.33 142.95 384.18 142.483 383.88 142.2C383.597 141.9 383.264 141.75 382.88 141.75C382.614 141.75 382.33 141.833 382.03 142C381.73 142.15 381.455 142.367 381.205 142.65C380.955 142.933 380.755 143.258 380.605 143.625V151H375.855V137.85H380.13V139.8C380.447 139.317 380.847 138.917 381.33 138.6C381.814 138.267 382.372 138.017 383.005 137.85C383.639 137.683 384.33 137.6 385.08 137.6C385.98 137.6 386.697 137.758 387.23 138.075C387.764 138.392 388.164 138.8 388.43 139.3C388.697 139.8 388.872 140.325 388.955 140.875C389.039 141.408 389.08 141.9 389.08 142.35V151ZM396.658 151.25C395.508 151.25 394.374 151.067 393.258 150.7C392.158 150.317 391.224 149.767 390.458 149.05L392.083 146.125C392.899 146.658 393.683 147.075 394.433 147.375C395.199 147.675 395.891 147.825 396.508 147.825C396.858 147.825 397.116 147.783 397.283 147.7C397.449 147.6 397.533 147.442 397.533 147.225C397.533 147.075 397.474 146.95 397.358 146.85C397.241 146.75 397.049 146.65 396.783 146.55C396.533 146.45 396.208 146.342 395.808 146.225C394.774 145.858 393.908 145.517 393.208 145.2C392.524 144.883 392.008 144.5 391.658 144.05C391.324 143.583 391.158 142.967 391.158 142.2C391.158 141.3 391.383 140.508 391.833 139.825C392.283 139.125 392.924 138.575 393.758 138.175C394.608 137.775 395.624 137.575 396.808 137.575C397.691 137.575 398.574 137.717 399.458 138C400.358 138.267 401.224 138.758 402.058 139.475L400.258 142.375C399.424 141.858 398.716 141.492 398.133 141.275C397.566 141.058 397.058 140.95 396.608 140.95C396.391 140.95 396.199 140.975 396.033 141.025C395.883 141.075 395.766 141.15 395.683 141.25C395.599 141.35 395.558 141.483 395.558 141.65C395.558 141.817 395.616 141.958 395.733 142.075C395.849 142.175 396.033 142.275 396.283 142.375C396.533 142.458 396.849 142.558 397.233 142.675C398.366 143.008 399.291 143.35 400.008 143.7C400.724 144.033 401.249 144.442 401.583 144.925C401.933 145.408 402.108 146.042 402.108 146.825C402.108 148.208 401.616 149.292 400.633 150.075C399.666 150.858 398.341 151.25 396.658 151.25ZM403.957 151V146.4H407.807V151H403.957ZM407.948 139.675L408.598 136.4H407.298V132.4H412.223V136.525L411.173 139.675H407.948ZM414.173 139.675L414.823 136.4H413.523V132.4H418.448V136.525L417.398 139.675H414.173Z" fill="#1F1F1F"></path><path d="M168.683 119.25C167.517 119.25 166.483 119.067 165.583 118.7C164.7 118.333 163.95 117.833 163.333 117.2C162.717 116.55 162.25 115.817 161.933 115C161.617 114.183 161.458 113.325 161.458 112.425C161.458 111.225 161.733 110.108 162.283 109.075C162.85 108.025 163.667 107.183 164.733 106.55C165.817 105.917 167.133 105.6 168.683 105.6C170.267 105.6 171.6 105.933 172.683 106.6C173.767 107.267 174.575 108.125 175.108 109.175L170.483 110.575C170.267 110.258 170 110.017 169.683 109.85C169.383 109.683 169.042 109.6 168.658 109.6C168.225 109.6 167.833 109.717 167.483 109.95C167.133 110.167 166.85 110.483 166.633 110.9C166.433 111.317 166.333 111.825 166.333 112.425C166.333 113.008 166.433 113.517 166.633 113.95C166.85 114.367 167.133 114.692 167.483 114.925C167.833 115.142 168.225 115.25 168.658 115.25C168.925 115.25 169.167 115.217 169.383 115.15C169.6 115.067 169.8 114.95 169.983 114.8C170.183 114.65 170.35 114.475 170.483 114.275L175.108 115.675C174.758 116.375 174.275 116.992 173.658 117.525C173.058 118.058 172.342 118.483 171.508 118.8C170.692 119.1 169.75 119.25 168.683 119.25ZM189.837 119H185.087V111.6C185.087 110.95 184.937 110.483 184.637 110.2C184.354 109.9 183.995 109.75 183.562 109.75C183.362 109.75 183.112 109.825 182.812 109.975C182.529 110.125 182.254 110.342 181.987 110.625C181.72 110.908 181.512 111.242 181.362 111.625V119H176.612V100.75H181.362V107.8C181.829 107.083 182.437 106.542 183.187 106.175C183.954 105.792 184.795 105.6 185.712 105.6C186.645 105.6 187.387 105.758 187.937 106.075C188.487 106.375 188.895 106.767 189.162 107.25C189.429 107.733 189.604 108.25 189.687 108.8C189.787 109.35 189.837 109.867 189.837 110.35V119ZM191.414 115.025C191.414 114.142 191.656 113.367 192.139 112.7C192.623 112.017 193.289 111.483 194.139 111.1C195.006 110.717 195.989 110.525 197.089 110.525C197.606 110.525 198.089 110.567 198.539 110.65C199.006 110.733 199.406 110.858 199.739 111.025V110.625C199.739 110.008 199.556 109.55 199.189 109.25C198.839 108.95 198.264 108.8 197.464 108.8C196.731 108.8 196.039 108.925 195.389 109.175C194.756 109.408 194.089 109.758 193.389 110.225L192.014 107.275C192.898 106.708 193.823 106.292 194.789 106.025C195.773 105.742 196.823 105.6 197.939 105.6C200.023 105.6 201.631 106.075 202.764 107.025C203.914 107.958 204.489 109.35 204.489 111.2V113.75C204.489 114.2 204.556 114.517 204.689 114.7C204.823 114.867 205.056 114.967 205.389 115V119C205.006 119.083 204.639 119.142 204.289 119.175C203.956 119.225 203.656 119.25 203.389 119.25C202.539 119.25 201.889 119.1 201.439 118.8C201.006 118.483 200.723 118.025 200.589 117.425L200.489 116.95C199.906 117.7 199.231 118.275 198.464 118.675C197.698 119.058 196.881 119.25 196.014 119.25C195.148 119.25 194.364 119.067 193.664 118.7C192.964 118.333 192.414 117.833 192.014 117.2C191.614 116.55 191.414 115.825 191.414 115.025ZM199.114 115.35C199.298 115.217 199.448 115.075 199.564 114.925C199.681 114.758 199.739 114.592 199.739 114.425V113.45C199.473 113.35 199.164 113.267 198.814 113.2C198.481 113.133 198.181 113.1 197.914 113.1C197.348 113.1 196.864 113.242 196.464 113.525C196.081 113.808 195.889 114.167 195.889 114.6C195.889 114.833 195.956 115.05 196.089 115.25C196.223 115.433 196.406 115.583 196.639 115.7C196.873 115.8 197.139 115.85 197.439 115.85C197.723 115.85 198.014 115.808 198.314 115.725C198.631 115.625 198.898 115.5 199.114 115.35ZM220.33 119H215.58V111.6C215.58 110.95 215.43 110.483 215.13 110.2C214.847 109.9 214.514 109.75 214.13 109.75C213.864 109.75 213.58 109.833 213.28 110C212.98 110.15 212.705 110.367 212.455 110.65C212.205 110.933 212.005 111.258 211.855 111.625V119H207.105V105.85H211.38V107.8C211.697 107.317 212.097 106.917 212.58 106.6C213.064 106.267 213.622 106.017 214.255 105.85C214.889 105.683 215.58 105.6 216.33 105.6C217.23 105.6 217.947 105.758 218.48 106.075C219.014 106.392 219.414 106.8 219.68 107.3C219.947 107.8 220.122 108.325 220.205 108.875C220.289 109.408 220.33 109.9 220.33 110.35V119ZM227.683 119C226.833 119 226.049 118.833 225.333 118.5C224.633 118.167 224.033 117.7 223.533 117.1C223.033 116.5 222.641 115.8 222.358 115C222.091 114.2 221.958 113.333 221.958 112.4C221.958 111.417 222.108 110.517 222.408 109.7C222.708 108.867 223.124 108.142 223.658 107.525C224.208 106.908 224.858 106.433 225.608 106.1C226.358 105.767 227.183 105.6 228.083 105.6C229.016 105.6 229.841 105.792 230.558 106.175C231.291 106.542 231.866 107.083 232.283 107.8V105.85H236.408V117.8C236.408 119.167 236.074 120.358 235.408 121.375C234.741 122.392 233.808 123.175 232.608 123.725C231.408 124.292 230.008 124.575 228.408 124.575C227.024 124.575 225.808 124.358 224.758 123.925C223.724 123.492 222.808 122.867 222.008 122.05L224.508 119.45C224.991 119.9 225.566 120.275 226.233 120.575C226.916 120.892 227.641 121.05 228.408 121.05C228.991 121.05 229.524 120.942 230.008 120.725C230.508 120.508 230.908 120.158 231.208 119.675C231.508 119.208 231.658 118.583 231.658 117.8V116.95C231.291 117.633 230.741 118.15 230.008 118.5C229.291 118.833 228.516 119 227.683 119ZM229.383 115.25C229.616 115.25 229.833 115.225 230.033 115.175C230.249 115.108 230.449 115.025 230.633 114.925C230.816 114.808 230.991 114.667 231.158 114.5C231.341 114.317 231.508 114.117 231.658 113.9V111.55C231.508 111.15 231.299 110.808 231.033 110.525C230.766 110.225 230.474 110 230.158 109.85C229.841 109.683 229.516 109.6 229.183 109.6C228.849 109.6 228.533 109.675 228.233 109.825C227.949 109.975 227.699 110.192 227.483 110.475C227.266 110.742 227.099 111.05 226.983 111.4C226.866 111.75 226.808 112.125 226.808 112.525C226.808 112.925 226.866 113.292 226.983 113.625C227.116 113.958 227.299 114.25 227.533 114.5C227.766 114.733 228.041 114.917 228.358 115.05C228.674 115.183 229.016 115.25 229.383 115.25ZM238.819 119V105.85H243.569V119H238.819ZM238.819 104.75V100.75H243.569V104.75H238.819ZM259.197 119H254.447V111.6C254.447 110.95 254.297 110.483 253.997 110.2C253.714 109.9 253.381 109.75 252.997 109.75C252.731 109.75 252.447 109.833 252.147 110C251.847 110.15 251.572 110.367 251.322 110.65C251.072 110.933 250.872 111.258 250.722 111.625V119H245.972V105.85H250.247V107.8C250.564 107.317 250.964 106.917 251.447 106.6C251.931 106.267 252.489 106.017 253.122 105.85C253.756 105.683 254.447 105.6 255.197 105.6C256.097 105.6 256.814 105.758 257.347 106.075C257.881 106.392 258.281 106.8 258.547 107.3C258.814 107.8 258.989 108.325 259.072 108.875C259.156 109.408 259.197 109.9 259.197 110.35V119ZM266.55 119C265.7 119 264.916 118.833 264.2 118.5C263.5 118.167 262.9 117.7 262.4 117.1C261.9 116.5 261.508 115.8 261.225 115C260.958 114.2 260.825 113.333 260.825 112.4C260.825 111.417 260.975 110.517 261.275 109.7C261.575 108.867 261.991 108.142 262.525 107.525C263.075 106.908 263.725 106.433 264.475 106.1C265.225 105.767 266.05 105.6 266.95 105.6C267.883 105.6 268.708 105.792 269.425 106.175C270.158 106.542 270.733 107.083 271.15 107.8V105.85H275.275V117.8C275.275 119.167 274.941 120.358 274.275 121.375C273.608 122.392 272.675 123.175 271.475 123.725C270.275 124.292 268.875 124.575 267.275 124.575C265.891 124.575 264.675 124.358 263.625 123.925C262.591 123.492 261.675 122.867 260.875 122.05L263.375 119.45C263.858 119.9 264.433 120.275 265.1 120.575C265.783 120.892 266.508 121.05 267.275 121.05C267.858 121.05 268.391 120.942 268.875 120.725C269.375 120.508 269.775 120.158 270.075 119.675C270.375 119.208 270.525 118.583 270.525 117.8V116.95C270.158 117.633 269.608 118.15 268.875 118.5C268.158 118.833 267.383 119 266.55 119ZM268.25 115.25C268.483 115.25 268.7 115.225 268.9 115.175C269.116 115.108 269.316 115.025 269.5 114.925C269.683 114.808 269.858 114.667 270.025 114.5C270.208 114.317 270.375 114.117 270.525 113.9V111.55C270.375 111.15 270.166 110.808 269.9 110.525C269.633 110.225 269.341 110 269.025 109.85C268.708 109.683 268.383 109.6 268.05 109.6C267.716 109.6 267.4 109.675 267.1 109.825C266.816 109.975 266.566 110.192 266.35 110.475C266.133 110.742 265.966 111.05 265.85 111.4C265.733 111.75 265.675 112.125 265.675 112.525C265.675 112.925 265.733 113.292 265.85 113.625C265.983 113.958 266.166 114.25 266.4 114.5C266.633 114.733 266.908 114.917 267.225 115.05C267.541 115.183 267.883 115.25 268.25 115.25ZM283.202 100.75H287.952V113.775C287.952 114.258 288.052 114.633 288.252 114.9C288.468 115.15 288.777 115.275 289.177 115.275C289.377 115.275 289.593 115.242 289.827 115.175C290.06 115.108 290.277 115.017 290.477 114.9L291.077 118.4C290.51 118.667 289.868 118.875 289.152 119.025C288.452 119.175 287.785 119.25 287.152 119.25C285.885 119.25 284.91 118.925 284.227 118.275C283.543 117.608 283.202 116.667 283.202 115.45V100.75ZM292.188 119V105.85H296.938V119H292.188ZM292.188 104.75V100.75H296.938V104.75H292.188ZM302.592 119L298.167 105.85H303.042L305.392 114.775L307.767 105.85H312.192L307.767 119H302.592ZM319.464 119.25C318.314 119.25 317.289 119.075 316.389 118.725C315.489 118.358 314.731 117.867 314.114 117.25C313.514 116.633 313.056 115.925 312.739 115.125C312.422 114.325 312.264 113.483 312.264 112.6C312.264 111.333 312.539 110.175 313.089 109.125C313.639 108.058 314.447 107.208 315.514 106.575C316.581 105.925 317.897 105.6 319.464 105.6C321.031 105.6 322.347 105.917 323.414 106.55C324.481 107.183 325.289 108.017 325.839 109.05C326.389 110.083 326.664 111.208 326.664 112.425C326.664 112.675 326.647 112.933 326.614 113.2C326.597 113.45 326.572 113.675 326.539 113.875H317.314C317.347 114.342 317.472 114.725 317.689 115.025C317.922 115.308 318.206 115.517 318.539 115.65C318.889 115.783 319.247 115.85 319.614 115.85C320.131 115.85 320.614 115.733 321.064 115.5C321.531 115.267 321.839 114.942 321.989 114.525L326.014 115.675C325.664 116.375 325.172 116.992 324.539 117.525C323.922 118.058 323.189 118.483 322.339 118.8C321.489 119.1 320.531 119.25 319.464 119.25ZM317.214 111.025H321.564C321.514 110.592 321.389 110.225 321.189 109.925C321.006 109.625 320.756 109.392 320.439 109.225C320.139 109.058 319.789 108.975 319.389 108.975C318.989 108.975 318.631 109.058 318.314 109.225C318.014 109.392 317.764 109.625 317.564 109.925C317.381 110.225 317.264 110.592 317.214 111.025ZM333.498 119.25C332.348 119.25 331.215 119.067 330.098 118.7C328.998 118.317 328.065 117.767 327.298 117.05L328.923 114.125C329.74 114.658 330.523 115.075 331.273 115.375C332.04 115.675 332.732 115.825 333.348 115.825C333.698 115.825 333.957 115.783 334.123 115.7C334.29 115.6 334.373 115.442 334.373 115.225C334.373 115.075 334.315 114.95 334.198 114.85C334.082 114.75 333.89 114.65 333.623 114.55C333.373 114.45 333.048 114.342 332.648 114.225C331.615 113.858 330.748 113.517 330.048 113.2C329.365 112.883 328.848 112.5 328.498 112.05C328.165 111.583 327.998 110.967 327.998 110.2C327.998 109.3 328.223 108.508 328.673 107.825C329.123 107.125 329.765 106.575 330.598 106.175C331.448 105.775 332.465 105.575 333.648 105.575C334.532 105.575 335.415 105.717 336.298 106C337.198 106.267 338.065 106.758 338.898 107.475L337.098 110.375C336.265 109.858 335.557 109.492 334.973 109.275C334.407 109.058 333.898 108.95 333.448 108.95C333.232 108.95 333.04 108.975 332.873 109.025C332.723 109.075 332.607 109.15 332.523 109.25C332.44 109.35 332.398 109.483 332.398 109.65C332.398 109.817 332.457 109.958 332.573 110.075C332.69 110.175 332.873 110.275 333.123 110.375C333.373 110.458 333.69 110.558 334.073 110.675C335.207 111.008 336.132 111.35 336.848 111.7C337.565 112.033 338.09 112.442 338.423 112.925C338.773 113.408 338.948 114.042 338.948 114.825C338.948 116.208 338.457 117.292 337.473 118.075C336.507 118.858 335.182 119.25 333.498 119.25Z" fill="#A79BF5"></path><path d="M212.121 187V172.8H218.141C218.794 172.8 219.394 172.94 219.941 173.22C220.501 173.487 220.981 173.847 221.381 174.3C221.781 174.74 222.094 175.247 222.321 175.82C222.547 176.38 222.661 176.947 222.661 177.52C222.661 178.12 222.554 178.707 222.341 179.28C222.127 179.84 221.827 180.34 221.441 180.78C221.054 181.22 220.587 181.573 220.041 181.84C219.494 182.107 218.894 182.24 218.241 182.24H214.881V187H212.121ZM214.881 179.82H218.081C218.587 179.82 219.007 179.613 219.341 179.2C219.687 178.787 219.861 178.227 219.861 177.52C219.861 177.16 219.807 176.84 219.701 176.56C219.594 176.267 219.454 176.02 219.281 175.82C219.107 175.62 218.901 175.473 218.661 175.38C218.434 175.273 218.201 175.22 217.961 175.22H214.881V179.82ZM234.062 187H231.382V181.12C231.382 180.293 231.228 179.687 230.922 179.3C230.615 178.9 230.182 178.7 229.622 178.7C229.382 178.7 229.128 178.753 228.862 178.86C228.595 178.967 228.342 179.12 228.102 179.32C227.862 179.507 227.642 179.733 227.442 180C227.242 180.267 227.095 180.56 227.002 180.88V187H224.322V172.4H227.002V178.46C227.388 177.78 227.908 177.26 228.562 176.9C229.228 176.527 229.962 176.34 230.762 176.34C231.442 176.34 231.995 176.46 232.422 176.7C232.848 176.927 233.182 177.233 233.422 177.62C233.662 178.007 233.828 178.447 233.922 178.94C234.015 179.433 234.062 179.94 234.062 180.46V187ZM236.392 187V176.52H239.072V187H236.392ZM236.392 175.06V172.4H239.072V175.06H236.392ZM241.47 172.4H244.15V183.64C244.15 184.027 244.243 184.327 244.43 184.54C244.616 184.753 244.883 184.86 245.23 184.86C245.39 184.86 245.563 184.833 245.75 184.78C245.95 184.727 246.136 184.66 246.31 184.58L246.67 186.62C246.31 186.793 245.89 186.927 245.41 187.02C244.93 187.113 244.496 187.16 244.11 187.16C243.27 187.16 242.616 186.94 242.15 186.5C241.696 186.047 241.47 185.407 241.47 184.58V172.4ZM263.717 183.34C263.717 183.94 263.597 184.467 263.357 184.92C263.117 185.373 262.784 185.753 262.357 186.06C261.944 186.367 261.457 186.6 260.897 186.76C260.35 186.92 259.764 187 259.137 187H252.277V172.8H259.877C260.37 172.8 260.817 172.907 261.217 173.12C261.617 173.333 261.957 173.613 262.237 173.96C262.517 174.293 262.73 174.68 262.877 175.12C263.037 175.547 263.117 175.98 263.117 176.42C263.117 177.113 262.944 177.767 262.597 178.38C262.25 178.98 261.744 179.427 261.077 179.72C261.89 179.96 262.53 180.393 262.997 181.02C263.477 181.633 263.717 182.407 263.717 183.34ZM260.937 182.82C260.937 182.567 260.89 182.327 260.797 182.1C260.717 181.86 260.604 181.653 260.457 181.48C260.31 181.307 260.137 181.173 259.937 181.08C259.737 180.973 259.517 180.92 259.277 180.92H255.037V184.66H259.137C259.39 184.66 259.624 184.613 259.837 184.52C260.064 184.427 260.257 184.3 260.417 184.14C260.577 183.967 260.704 183.767 260.797 183.54C260.89 183.313 260.937 183.073 260.937 182.82ZM255.037 175.16V178.74H258.717C259.184 178.74 259.577 178.58 259.897 178.26C260.23 177.94 260.397 177.5 260.397 176.94C260.397 176.393 260.244 175.96 259.937 175.64C259.644 175.32 259.277 175.16 258.837 175.16H255.037ZM268.471 187.2C267.964 187.2 267.491 187.12 267.051 186.96C266.611 186.787 266.231 186.553 265.911 186.26C265.591 185.953 265.337 185.6 265.151 185.2C264.977 184.8 264.891 184.36 264.891 183.88C264.891 183.387 264.997 182.933 265.211 182.52C265.437 182.093 265.744 181.733 266.131 181.44C266.531 181.147 267.004 180.92 267.551 180.76C268.097 180.587 268.697 180.5 269.351 180.5C269.817 180.5 270.271 180.54 270.711 180.62C271.164 180.7 271.564 180.813 271.911 180.96V180.36C271.911 179.667 271.711 179.133 271.311 178.76C270.924 178.387 270.344 178.2 269.571 178.2C269.011 178.2 268.464 178.3 267.931 178.5C267.397 178.7 266.851 178.993 266.291 179.38L265.471 177.68C266.817 176.787 268.271 176.34 269.831 176.34C271.337 176.34 272.504 176.713 273.331 177.46C274.171 178.193 274.591 179.26 274.591 180.66V183.92C274.591 184.2 274.637 184.4 274.731 184.52C274.837 184.64 275.004 184.707 275.231 184.72V187C274.777 187.093 274.384 187.14 274.051 187.14C273.544 187.14 273.151 187.027 272.871 186.8C272.604 186.573 272.437 186.273 272.371 185.9L272.311 185.32C271.844 185.933 271.277 186.4 270.611 186.72C269.944 187.04 269.231 187.2 268.471 187.2ZM269.231 185.24C269.684 185.24 270.111 185.16 270.511 185C270.924 184.84 271.244 184.627 271.471 184.36C271.764 184.133 271.911 183.88 271.911 183.6V182.4C271.591 182.28 271.244 182.187 270.871 182.12C270.497 182.04 270.137 182 269.791 182C269.097 182 268.531 182.16 268.091 182.48C267.651 182.787 267.431 183.18 267.431 183.66C267.431 184.113 267.604 184.493 267.951 184.8C268.297 185.093 268.724 185.24 269.231 185.24ZM283.297 186.46C282.937 186.62 282.497 186.78 281.977 186.94C281.457 187.1 280.91 187.18 280.337 187.18C279.964 187.18 279.61 187.133 279.277 187.04C278.957 186.947 278.67 186.8 278.417 186.6C278.177 186.387 277.984 186.12 277.837 185.8C277.69 185.467 277.617 185.067 277.617 184.6V178.58H276.237V176.52H277.617V173.12H280.297V176.52H282.497V178.58H280.297V183.7C280.297 184.073 280.39 184.34 280.577 184.5C280.777 184.647 281.017 184.72 281.297 184.72C281.577 184.72 281.85 184.673 282.117 184.58C282.384 184.487 282.597 184.407 282.757 184.34L283.297 186.46ZM289.299 187.2C288.459 187.2 287.699 187.06 287.019 186.78C286.339 186.487 285.759 186.093 285.279 185.6C284.799 185.107 284.425 184.533 284.159 183.88C283.905 183.227 283.779 182.54 283.779 181.82C283.779 181.073 283.905 180.373 284.159 179.72C284.412 179.053 284.779 178.473 285.259 177.98C285.739 177.473 286.319 177.073 286.999 176.78C287.692 176.487 288.465 176.34 289.319 176.34C290.172 176.34 290.932 176.487 291.599 176.78C292.279 177.073 292.852 177.467 293.319 177.96C293.799 178.453 294.159 179.027 294.399 179.68C294.652 180.333 294.779 181.013 294.779 181.72C294.779 181.893 294.772 182.06 294.759 182.22C294.759 182.38 294.745 182.513 294.719 182.62H286.619C286.659 183.033 286.759 183.4 286.919 183.72C287.079 184.04 287.285 184.313 287.539 184.54C287.792 184.767 288.079 184.94 288.399 185.06C288.719 185.18 289.052 185.24 289.399 185.24C289.932 185.24 290.432 185.113 290.899 184.86C291.379 184.593 291.705 184.247 291.879 183.82L294.179 184.46C293.792 185.26 293.172 185.92 292.319 186.44C291.479 186.947 290.472 187.2 289.299 187.2ZM292.019 180.88C291.952 180.093 291.659 179.467 291.139 179C290.632 178.52 290.012 178.28 289.279 178.28C288.919 178.28 288.579 178.347 288.259 178.48C287.952 178.6 287.679 178.773 287.439 179C287.199 179.227 286.999 179.5 286.839 179.82C286.692 180.14 286.605 180.493 286.579 180.88H292.019ZM312.691 187H310.011V181.12C310.011 180.28 309.865 179.667 309.571 179.28C309.291 178.893 308.898 178.7 308.391 178.7C307.858 178.7 307.358 178.907 306.891 179.32C306.425 179.72 306.091 180.247 305.891 180.9V187H303.211V181.12C303.211 180.28 303.065 179.667 302.771 179.28C302.491 178.893 302.098 178.7 301.591 178.7C301.071 178.7 300.571 178.9 300.091 179.3C299.625 179.7 299.291 180.227 299.091 180.88V187H296.411V176.52H298.831V178.46C299.218 177.78 299.745 177.26 300.411 176.9C301.091 176.527 301.865 176.34 302.731 176.34C303.611 176.34 304.291 176.553 304.771 176.98C305.251 177.407 305.558 177.933 305.691 178.56C306.118 177.84 306.658 177.293 307.311 176.92C307.965 176.533 308.711 176.34 309.551 176.34C310.191 176.34 310.718 176.46 311.131 176.7C311.545 176.94 311.865 177.253 312.091 177.64C312.318 178.027 312.471 178.467 312.551 178.96C312.645 179.453 312.691 179.953 312.691 180.46V187ZM317.885 187.2C317.378 187.2 316.905 187.12 316.465 186.96C316.025 186.787 315.645 186.553 315.325 186.26C315.005 185.953 314.751 185.6 314.565 185.2C314.391 184.8 314.305 184.36 314.305 183.88C314.305 183.387 314.411 182.933 314.625 182.52C314.851 182.093 315.158 181.733 315.545 181.44C315.945 181.147 316.418 180.92 316.965 180.76C317.511 180.587 318.111 180.5 318.765 180.5C319.231 180.5 319.685 180.54 320.125 180.62C320.578 180.7 320.978 180.813 321.325 180.96V180.36C321.325 179.667 321.125 179.133 320.725 178.76C320.338 178.387 319.758 178.2 318.985 178.2C318.425 178.2 317.878 178.3 317.345 178.5C316.811 178.7 316.265 178.993 315.705 179.38L314.885 177.68C316.231 176.787 317.685 176.34 319.245 176.34C320.751 176.34 321.918 176.713 322.745 177.46C323.585 178.193 324.005 179.26 324.005 180.66V183.92C324.005 184.2 324.051 184.4 324.145 184.52C324.251 184.64 324.418 184.707 324.645 184.72V187C324.191 187.093 323.798 187.14 323.465 187.14C322.958 187.14 322.565 187.027 322.285 186.8C322.018 186.573 321.851 186.273 321.785 185.9L321.725 185.32C321.258 185.933 320.691 186.4 320.025 186.72C319.358 187.04 318.645 187.2 317.885 187.2ZM318.645 185.24C319.098 185.24 319.525 185.16 319.925 185C320.338 184.84 320.658 184.627 320.885 184.36C321.178 184.133 321.325 183.88 321.325 183.6V182.4C321.005 182.28 320.658 182.187 320.285 182.12C319.911 182.04 319.551 182 319.205 182C318.511 182 317.945 182.16 317.505 182.48C317.065 182.787 316.845 183.18 316.845 183.66C316.845 184.113 317.018 184.493 317.365 184.8C317.711 185.093 318.138 185.24 318.645 185.24ZM336.249 187H333.569V181.12C333.569 180.28 333.422 179.667 333.129 179.28C332.836 178.893 332.429 178.7 331.909 178.7C331.642 178.7 331.369 178.753 331.089 178.86C330.809 178.967 330.542 179.12 330.289 179.32C330.049 179.507 329.829 179.733 329.629 180C329.429 180.267 329.282 180.56 329.189 180.88V187H326.509V176.52H328.929V178.46C329.316 177.793 329.876 177.273 330.609 176.9C331.342 176.527 332.169 176.34 333.089 176.34C333.742 176.34 334.276 176.46 334.689 176.7C335.102 176.94 335.422 177.253 335.649 177.64C335.876 178.027 336.029 178.467 336.109 178.96C336.202 179.453 336.249 179.953 336.249 180.46V187Z" fill="#A79BF5"></path><path d="M243.2 210V198.64H250.832V200.576H245.408V203.504H249.92V205.296H245.408V210H243.2ZM255.504 210.16C254.822 210.16 254.208 210.043 253.664 209.808C253.12 209.573 252.656 209.259 252.272 208.864C251.899 208.459 251.611 207.995 251.408 207.472C251.206 206.949 251.104 206.4 251.104 205.824C251.104 205.237 251.206 204.683 251.408 204.16C251.611 203.637 251.899 203.179 252.272 202.784C252.656 202.379 253.12 202.059 253.664 201.824C254.208 201.589 254.822 201.472 255.504 201.472C256.187 201.472 256.795 201.589 257.328 201.824C257.872 202.059 258.331 202.379 258.704 202.784C259.088 203.179 259.382 203.637 259.584 204.16C259.787 204.683 259.888 205.237 259.888 205.824C259.888 206.4 259.787 206.949 259.584 207.472C259.382 207.995 259.094 208.459 258.72 208.864C258.347 209.259 257.888 209.573 257.344 209.808C256.8 210.043 256.187 210.16 255.504 210.16ZM253.312 205.824C253.312 206.197 253.366 206.539 253.472 206.848C253.59 207.147 253.744 207.408 253.936 207.632C254.139 207.856 254.374 208.032 254.64 208.16C254.907 208.277 255.195 208.336 255.504 208.336C255.814 208.336 256.102 208.277 256.368 208.16C256.635 208.032 256.864 207.856 257.056 207.632C257.259 207.408 257.414 207.141 257.52 206.832C257.638 206.523 257.696 206.181 257.696 205.808C257.696 205.445 257.638 205.109 257.52 204.8C257.414 204.491 257.259 204.224 257.056 204C256.864 203.776 256.635 203.605 256.368 203.488C256.102 203.36 255.814 203.296 255.504 203.296C255.195 203.296 254.907 203.36 254.64 203.488C254.374 203.616 254.139 203.792 253.936 204.016C253.744 204.24 253.59 204.507 253.472 204.816C253.366 205.125 253.312 205.461 253.312 205.824ZM263.895 210.16C263.031 210.16 262.375 209.883 261.927 209.328C261.479 208.773 261.255 207.952 261.255 206.864V201.616H263.399V206.4C263.399 207.691 263.863 208.336 264.791 208.336C265.207 208.336 265.607 208.213 265.991 207.968C266.386 207.712 266.706 207.328 266.951 206.816V201.616H269.095V207.536C269.095 207.76 269.133 207.92 269.207 208.016C269.293 208.112 269.426 208.165 269.607 208.176V210C269.394 210.043 269.213 210.069 269.063 210.08C268.925 210.091 268.797 210.096 268.679 210.096C268.295 210.096 267.981 210.011 267.735 209.84C267.501 209.659 267.362 209.413 267.319 209.104L267.271 208.432C266.898 209.008 266.418 209.44 265.831 209.728C265.245 210.016 264.599 210.16 263.895 210.16ZM279.018 210H276.874V205.296C276.874 204.624 276.757 204.133 276.522 203.824C276.287 203.515 275.962 203.36 275.546 203.36C275.333 203.36 275.114 203.403 274.89 203.488C274.666 203.573 274.453 203.696 274.25 203.856C274.058 204.005 273.882 204.187 273.722 204.4C273.562 204.613 273.445 204.848 273.37 205.104V210H271.226V201.616H273.162V203.168C273.471 202.635 273.919 202.219 274.506 201.92C275.093 201.621 275.754 201.472 276.49 201.472C277.013 201.472 277.439 201.568 277.77 201.76C278.101 201.952 278.357 202.203 278.538 202.512C278.719 202.821 278.842 203.173 278.906 203.568C278.981 203.963 279.018 204.363 279.018 204.768V210ZM284.354 210.16C283.778 210.16 283.245 210.048 282.754 209.824C282.264 209.6 281.842 209.291 281.49 208.896C281.138 208.501 280.861 208.043 280.658 207.52C280.466 206.987 280.37 206.416 280.37 205.808C280.37 205.2 280.461 204.635 280.642 204.112C280.834 203.589 281.096 203.131 281.426 202.736C281.757 202.341 282.152 202.032 282.61 201.808C283.069 201.584 283.57 201.472 284.114 201.472C284.733 201.472 285.288 201.621 285.778 201.92C286.28 202.219 286.669 202.608 286.946 203.088V198.32H289.09V207.536C289.09 207.76 289.128 207.92 289.202 208.016C289.277 208.112 289.405 208.165 289.586 208.176V210C289.213 210.075 288.909 210.112 288.674 210.112C288.29 210.112 287.976 210.016 287.73 209.824C287.485 209.632 287.346 209.381 287.314 209.072L287.266 208.544C286.957 209.077 286.536 209.483 286.002 209.76C285.48 210.027 284.93 210.16 284.354 210.16ZM284.914 208.336C285.117 208.336 285.325 208.304 285.538 208.24C285.752 208.165 285.949 208.064 286.13 207.936C286.312 207.808 286.472 207.659 286.61 207.488C286.76 207.317 286.872 207.131 286.946 206.928V204.928C286.861 204.693 286.738 204.48 286.578 204.288C286.429 204.085 286.253 203.915 286.05 203.776C285.858 203.627 285.65 203.509 285.426 203.424C285.213 203.339 285 203.296 284.786 203.296C284.466 203.296 284.168 203.365 283.89 203.504C283.624 203.643 283.394 203.835 283.202 204.08C283.01 204.315 282.861 204.587 282.754 204.896C282.648 205.205 282.594 205.525 282.594 205.856C282.594 206.208 282.653 206.533 282.77 206.832C282.888 207.131 283.048 207.392 283.25 207.616C283.453 207.84 283.693 208.016 283.97 208.144C284.258 208.272 284.573 208.336 284.914 208.336ZM295.083 210.16C294.411 210.16 293.803 210.048 293.259 209.824C292.715 209.589 292.251 209.275 291.867 208.88C291.483 208.485 291.184 208.027 290.971 207.504C290.768 206.981 290.667 206.432 290.667 205.856C290.667 205.259 290.768 204.699 290.971 204.176C291.173 203.643 291.467 203.179 291.851 202.784C292.235 202.379 292.699 202.059 293.243 201.824C293.797 201.589 294.416 201.472 295.099 201.472C295.781 201.472 296.389 201.589 296.923 201.824C297.467 202.059 297.925 202.373 298.299 202.768C298.683 203.163 298.971 203.621 299.163 204.144C299.365 204.667 299.467 205.211 299.467 205.776C299.467 205.915 299.461 206.048 299.451 206.176C299.451 206.304 299.44 206.411 299.419 206.496H292.939C292.971 206.827 293.051 207.12 293.179 207.376C293.307 207.632 293.472 207.851 293.675 208.032C293.877 208.213 294.107 208.352 294.363 208.448C294.619 208.544 294.885 208.592 295.163 208.592C295.589 208.592 295.989 208.491 296.363 208.288C296.747 208.075 297.008 207.797 297.147 207.456L298.987 207.968C298.677 208.608 298.181 209.136 297.499 209.552C296.827 209.957 296.021 210.16 295.083 210.16ZM297.259 205.104C297.205 204.475 296.971 203.973 296.555 203.6C296.149 203.216 295.653 203.024 295.067 203.024C294.779 203.024 294.507 203.077 294.251 203.184C294.005 203.28 293.787 203.419 293.595 203.6C293.403 203.781 293.243 204 293.115 204.256C292.997 204.512 292.928 204.795 292.907 205.104H297.259ZM305.765 203.472C305.114 203.483 304.533 203.611 304.021 203.856C303.509 204.091 303.141 204.448 302.917 204.928V210H300.773V201.616H302.741V203.408C302.89 203.12 303.066 202.864 303.269 202.64C303.472 202.405 303.69 202.203 303.925 202.032C304.16 201.861 304.394 201.733 304.629 201.648C304.874 201.552 305.109 201.504 305.333 201.504C305.45 201.504 305.536 201.504 305.589 201.504C305.653 201.504 305.712 201.509 305.765 201.52V203.472Z" fill="#A79BF5"></path></svg> 