<?xml version="1.0" encoding="UTF-8"?> <svg xmlns="http://www.w3.org/2000/svg" width="21" height="21" viewBox="0 0 21 21" fill="none"><path d="M10.5 1.96875C7.96985 1.96875 5.90625 4.03235 5.90625 6.5625C5.90625 7.30334 6.19849 8.10571 6.58301 8.98242C6.96753 9.85913 7.45715 10.7871 7.95703 11.6484C8.95679 13.3711 9.9668 14.8066 9.9668 14.8066L10.5 15.5859L11.0332 14.8066C11.0332 14.8066 12.0432 13.3711 13.043 11.6484C13.5428 10.7871 14.0325 9.85913 14.417 8.98242C14.8015 8.10571 15.0938 7.30334 15.0938 6.5625C15.0938 4.03235 13.0302 1.96875 10.5 1.96875ZM10.5 3.28125C12.3201 3.28125 13.7812 4.74243 13.7812 6.5625C13.7812 6.90857 13.5813 7.64429 13.2275 8.44922C12.8738 9.25415 12.379 10.1565 11.8945 10.9922C11.1921 12.2047 10.8333 12.7302 10.5 13.2275C10.1667 12.7302 9.80786 12.2047 9.10547 10.9922C8.62097 10.1565 8.12622 9.25415 7.77246 8.44922C7.4187 7.64429 7.21875 6.90857 7.21875 6.5625C7.21875 4.74243 8.67993 3.28125 10.5 3.28125ZM10.5 5.25C9.77454 5.25 9.1875 5.83704 9.1875 6.5625C9.1875 7.28796 9.77454 7.875 10.5 7.875C11.2255 7.875 11.8125 7.28796 11.8125 6.5625C11.8125 5.83704 11.2255 5.25 10.5 5.25ZM7.15723 12.7559C4.61682 13.2173 2.625 14.2273 2.625 15.75C2.625 17.9033 6.58557 19.0312 10.5 19.0312C14.4144 19.0312 18.375 17.9033 18.375 15.75C18.375 14.2273 16.3832 13.2173 13.8428 12.7559L13.043 13.9658C15.5219 14.3247 17.0625 15.1527 17.0625 15.75C17.0625 16.5344 14.4452 17.7188 10.5 17.7188C6.55481 17.7188 3.9375 16.5344 3.9375 15.75C3.9375 15.1527 5.47815 14.3247 7.95703 13.9658L7.15723 12.7559Z" fill="#A79BF5"></path></svg> 