<?xml version="1.0" encoding="UTF-8"?> <svg xmlns="http://www.w3.org/2000/svg" width="17" height="18" viewBox="0 0 17 18" fill="none"><path d="M3.81118 1.21875V1.89844H1.13184V16.8516H15.8682V1.89844H13.1889V1.21875H11.8492V1.89844H5.15086V1.21875H3.81118ZM2.47151 3.25781H3.81118V3.9375H5.15086V3.25781H11.8492V3.9375H13.1889V3.25781H14.5286V4.61719H2.47151V3.25781ZM2.47151 5.97656H14.5286V15.4922H2.47151V5.97656ZM6.49053 7.33594V8.69531H7.83021V7.33594H6.49053ZM9.16988 7.33594V8.69531H10.5096V7.33594H9.16988ZM11.8492 7.33594V8.69531H13.1889V7.33594H11.8492ZM3.81118 10.0547V11.4141H5.15086V10.0547H3.81118ZM6.49053 10.0547V11.4141H7.83021V10.0547H6.49053ZM9.16988 10.0547V11.4141H10.5096V10.0547H9.16988ZM11.8492 10.0547V11.4141H13.1889V10.0547H11.8492ZM3.81118 12.7734V14.1328H5.15086V12.7734H3.81118ZM6.49053 12.7734V14.1328H7.83021V12.7734H6.49053ZM9.16988 12.7734V14.1328H10.5096V12.7734H9.16988Z" fill="#A79BF5"></path></svg> 