<?xml version="1.0" encoding="UTF-8"?> <svg xmlns="http://www.w3.org/2000/svg" width="24" height="24" viewBox="0 0 24 24" fill="none"><path d="M5 3C3.90694 3 3 3.90694 3 5V19C3 20.0931 3.90694 21 5 21H19C20.0931 21 21 20.0931 21 19V5C21 3.90694 20.0931 3 19 3H5ZM5 5H19V7H5V5ZM5 9H19V19H5V9ZM7.5 10.5C7.10218 10.5 6.72064 10.658 6.43934 10.9393C6.15804 11.2206 6 11.6022 6 12C6 12.3978 6.15804 12.7794 6.43934 13.0607C6.72064 13.342 7.10218 13.5 7.5 13.5C7.89782 13.5 8.27936 13.342 8.56066 13.0607C8.84196 12.7794 9 12.3978 9 12C9 11.6022 8.84196 11.2206 8.56066 10.9393C8.27936 10.658 7.89782 10.5 7.5 10.5ZM12 11C11.7348 11 11.4804 11.1054 11.2929 11.2929C11.1054 11.4804 11 11.7348 11 12C11 12.2652 11.1054 12.5196 11.2929 12.7071C11.4804 12.8946 11.7348 13 12 13C12.2652 13 12.5196 12.8946 12.7071 12.7071C12.8946 12.5196 13 12.2652 13 12C13 11.7348 12.8946 11.4804 12.7071 11.2929C12.5196 11.1054 12.2652 11 12 11ZM16 11C15.7348 11 15.4804 11.1054 15.2929 11.2929C15.1054 11.4804 15 11.7348 15 12C15 12.2652 15.1054 12.5196 15.2929 12.7071C15.4804 12.8946 15.7348 13 16 13C16.2652 13 16.5196 12.8946 16.7071 12.7071C16.8946 12.5196 17 12.2652 17 12C17 11.7348 16.8946 11.4804 16.7071 11.2929C16.5196 11.1054 16.2652 11 16 11ZM16 15C15.6022 15 15.2206 15.158 14.9393 15.4393C14.658 15.7206 14.5 16.1022 14.5 16.5C14.5 16.8978 14.658 17.2794 14.9393 17.5607C15.2206 17.842 15.6022 18 16 18C16.3978 18 16.7794 17.842 17.0607 17.5607C17.342 17.2794 17.5 16.8978 17.5 16.5C17.5 16.1022 17.342 15.7206 17.0607 15.4393C16.7794 15.158 16.3978 15 16 15Z" fill="#59CFAF"></path></svg> 