<?xml version="1.0" encoding="UTF-8"?> <svg xmlns="http://www.w3.org/2000/svg" width="30" height="29" viewBox="0 0 30 29" fill="none"><ellipse cx="15" cy="14.325" rx="15" ry="14.325" fill="#A79BF5"></ellipse><path d="M11.0003 20.6917H7.66699V11.1417H11.0003V20.6917ZM9.33433 9.86833C8.41233 9.86833 7.66699 9.15463 7.66699 8.27603C7.66699 7.39743 8.41366 6.685 9.33433 6.685C10.253 6.685 11.0003 7.3987 11.0003 8.27603C11.0003 9.15463 10.253 9.86833 9.33433 9.86833ZM23.0003 20.6917H19.7957V16.044C19.7957 14.9356 19.7737 13.5101 18.1297 13.5101C16.461 13.5101 16.2043 14.7172 16.2043 15.9638V20.6917H13.0003V11.1347H16.0763V12.4405H16.1197C16.5477 11.6892 17.5937 10.8972 19.1537 10.8972C22.4003 10.8972 23.0003 12.8766 23.0003 15.45V20.6917Z" fill="#1A1A1A"></path></svg> 