<?xml version="1.0" encoding="UTF-8"?> <svg xmlns="http://www.w3.org/2000/svg" width="94" height="29" viewBox="0 0 94 29" fill="none"><path d="M37.5437 24.8901C38.7056 24.8901 39.6673 24.7272 40.4686 24.4013C41.2299 24.0754 41.9111 23.5865 42.5121 22.9755C42.8327 23.6273 43.2734 24.1161 43.7943 24.4013C44.3553 24.7272 45.0364 24.8494 45.8378 24.8494C46.4388 24.8494 47.0799 24.7679 47.721 24.6457C48.3621 24.5235 48.883 24.4013 49.2035 24.2791V22.3644L47.8412 22.2015C47.6008 22.1608 47.4405 22.0793 47.3203 21.9571C47.2001 21.8349 47.12 21.6312 47.12 21.3053V8.63616L46.4388 8.02511C45.958 8.02511 45.3971 8.02511 44.8361 8.06585C44.2751 8.10659 43.7142 8.14732 43.1132 8.18806C42.5121 8.2288 41.9512 8.31027 41.3902 8.39174C40.8293 8.47322 40.3084 8.59543 39.7875 8.71764V10.8359L41.3902 11.2026C41.5906 11.2433 41.7508 11.3655 41.871 11.4877C41.9912 11.6507 42.0313 11.8136 42.0313 12.0173V21.3868C41.6707 21.5904 41.27 21.7534 40.9094 21.8756C40.5087 21.9978 40.1481 22.0385 39.7474 22.0385C38.9861 22.0385 38.4252 21.7941 38.0645 21.3053C37.7039 20.8164 37.5036 19.9202 37.5036 18.5759V8.63616L36.8224 8.02511C36.3416 8.02511 35.8207 8.02511 35.2598 8.06585C34.6988 8.10659 34.1378 8.14732 33.5769 8.18806C33.0159 8.26953 32.455 8.31027 31.894 8.43248C31.3331 8.55469 30.8122 8.63616 30.3313 8.75837V10.8767L31.8139 11.2433C32.0142 11.2841 32.1745 11.4063 32.2947 11.5285C32.4149 11.6914 32.455 11.8544 32.455 12.058V19.3092C32.455 21.2238 32.8557 22.6089 33.6971 23.5458C34.5385 24.4827 35.8608 24.8901 37.5437 24.8901ZM55.5344 24.8901C56.5361 24.8901 57.4176 24.7272 58.2189 24.3605C59.0203 24.0346 59.7015 23.5458 60.2224 22.894C60.5028 23.5865 60.9436 24.1161 61.5045 24.3605C62.0655 24.6457 62.7467 24.7679 63.548 24.7679C64.109 24.7679 64.71 24.6864 65.3511 24.5642C65.9922 24.442 66.5131 24.3198 66.8737 24.1976V22.283L65.4713 22.12C65.2309 22.0793 65.0706 21.9978 64.9504 21.8756C64.8302 21.7534 64.7501 21.5497 64.7501 21.2238V14.2986C64.7501 12.221 64.2292 10.673 63.2275 9.61385C62.2258 8.55469 60.583 8.02511 58.2991 8.02511C56.4159 8.02511 54.8933 8.39174 53.6912 9.08427C52.5292 9.81753 51.6878 10.7545 51.247 11.9766L52.409 12.995C53.01 12.4247 53.6912 12.0173 54.4124 11.7322C55.1337 11.447 55.935 11.3248 56.7765 11.3248C57.7381 11.3248 58.4994 11.5285 59.0203 11.9766C59.5412 12.4247 59.8217 13.2394 59.8217 14.38V15.9688L56.9768 16.1317C56.1754 16.1725 55.3741 16.2947 54.6528 16.5391C53.8915 16.7428 53.2505 17.0687 52.6895 17.476C52.1285 17.8834 51.6477 18.3722 51.3272 18.9426C51.0066 19.5129 50.8063 20.2054 50.8063 20.9387C50.8063 22.12 51.247 23.0977 52.0885 23.831C52.97 24.5235 54.0919 24.8901 55.5344 24.8901ZM57.658 22.0793C57.057 22.0793 56.6563 21.9163 56.4159 21.6312C56.1754 21.346 56.0552 20.8979 56.0552 20.2869C56.0552 19.6758 56.2155 19.1462 56.5361 18.6981C56.8566 18.25 57.4977 18.0056 58.3792 17.9241L59.9018 17.8427V21.346C59.5813 21.5904 59.2206 21.7534 58.86 21.8756C58.4994 21.9978 58.0987 22.0793 57.658 22.0793ZM77.3716 24.5642V22.5274L76.41 22.2422C76.2096 22.1608 76.0494 22.0793 75.9692 21.9571C75.849 21.8349 75.809 21.6719 75.809 21.4275V11.7729C76.2096 11.5285 76.6103 11.3655 77.011 11.2433C77.4117 11.1211 77.8124 11.0804 78.213 11.0804C79.0545 11.0804 79.6555 11.3655 80.0161 11.8951C80.4168 12.4654 80.5771 13.4024 80.5771 14.7059V21.4275C80.5771 21.6312 80.537 21.8349 80.4168 21.9571C80.2966 22.0793 80.1363 22.1608 79.936 22.2422L79.0144 22.5274V24.5642H87.7894V22.5274L86.2668 22.2422C86.0665 22.2015 85.9062 22.12 85.786 21.9978C85.6658 21.8756 85.6257 21.6719 85.6257 21.4682V14.1764C85.6257 12.221 85.2651 10.7137 84.5839 9.65458C83.9028 8.59543 82.6206 8.06585 80.7374 8.06585C79.6956 8.06585 78.7339 8.2288 77.8524 8.59543C76.9709 8.96206 76.2096 9.49163 75.5285 10.1842L75.248 8.63616L74.5668 7.98438C73.6052 7.98438 72.6035 8.06585 71.5216 8.18806C70.4398 8.31027 69.398 8.51395 68.4364 8.79911V10.8767L70.1593 11.2433C70.3597 11.2841 70.5199 11.3655 70.6401 11.5285C70.7603 11.6914 70.8004 11.8544 70.8004 12.058V21.4275C70.8004 21.6312 70.7603 21.8349 70.6401 21.9571C70.5199 22.0793 70.3597 22.2015 70.1593 22.2015L68.6367 22.4866V24.5235H77.3716V24.5642Z" fill="#FEE622"></path><path d="M29.5304 24.9309L26.2849 22.12C27.6873 19.8795 28.4486 17.2316 28.4486 14.4208V14.2986C28.3684 8.02514 24.4016 2.52568 18.5116 0.651788C17.1493 0.203684 15.7068 0 14.2243 0C9.65648 0 5.32909 2.28126 2.64451 6.06977C0.921572 8.51398 0 11.447 0 14.4615C0 17.5983 0.961641 20.5313 2.76472 23.057C5.4493 26.7233 9.69655 28.9231 14.2243 28.9231C15.7469 28.9231 17.2695 28.6787 18.7119 28.1898C20.4749 27.5788 22.0376 26.6826 23.3599 25.5419L26.6054 28.3935C27.0061 28.7601 27.527 28.9231 28.0479 28.9231C28.6489 28.9231 29.29 28.6379 29.7307 28.1491C30.5722 27.1307 30.492 25.7049 29.5304 24.9309ZM14.2643 24.2384C8.93525 24.2384 4.60786 19.8388 4.60786 14.4208C4.60786 9.00282 8.93525 4.60325 14.2643 4.60325C19.5934 4.60325 23.9208 9.00282 23.9208 14.4208C23.9208 16.091 23.5201 17.639 22.7989 19.0241C22.6386 19.3499 22.4383 19.6758 22.238 20.0017C22.1578 20.1647 22.0376 20.2869 21.9174 20.4091L21.8773 20.4498C21.7571 20.5721 21.677 20.735 21.5568 20.8572C21.5568 20.8572 21.5568 20.8572 21.5167 20.8979C21.0359 21.4683 20.4749 21.9571 19.8739 22.4052C18.3113 23.5458 16.3479 24.2384 14.2643 24.2384Z" fill="#FEE622"></path><path d="M91.7161 24.7274C92.9775 24.7274 94 23.6878 94 22.4054C94 21.123 92.9775 20.0834 91.7161 20.0834C90.4547 20.0834 89.4322 21.123 89.4322 22.4054C89.4322 23.6878 90.4547 24.7274 91.7161 24.7274Z" fill="#FEE622"></path></svg> 