<?xml version="1.0" encoding="UTF-8"?> <svg xmlns="http://www.w3.org/2000/svg" width="125" height="26" viewBox="0 0 125 26" fill="none"><path d="M85.0071 5.67896C80.2509 5.67896 75.8438 9.58872 75.8438 15.4923C75.8438 21.8178 80.3675 25.4973 85.4721 25.4973C89.9958 25.4973 92.9738 22.8527 93.9792 19.5951L90.1903 18.4065C89.5707 20.2473 88.179 21.6641 85.4734 21.6641C82.7679 21.6641 80.4467 19.6323 80.3315 16.7947H94.0964C94.1357 16.7181 94.2137 16.1052 94.2137 15.3779C94.2104 9.47426 90.8073 5.67896 85.0077 5.67896M80.4441 13.5378C80.5993 11.5439 82.2229 9.39773 85.0457 9.39773C88.1384 9.39773 89.6074 11.3523 89.6853 13.5378H80.4447H80.4441Z" fill="#005A42"></path><path d="M124.843 22.2031V12.8645C124.843 7.88129 121.595 5.7168 118.192 5.7168C115.755 5.7168 113.551 6.56675 112.082 9.03938C111.076 6.83697 108.911 5.7168 106.437 5.7168C104.31 5.7168 101.95 6.72184 100.869 8.652V6.25657H96.5771V25.0726H101.024V13.9075C101.024 11.512 102.531 9.73492 104.93 9.73492C107.482 9.73492 108.563 11.4348 108.563 13.598V25.0733H112.972V13.9075C112.972 11.5899 114.518 9.73492 116.876 9.73492C119.39 9.73492 120.511 11.3955 120.511 13.598V22.6386H120.515C120.515 23.4113 120.63 24.648 120.708 25.0733H125C124.965 24.7997 124.871 23.645 124.843 22.2038L124.843 22.2031Z" fill="#005A42"></path><path d="M52.2349 21.673V12.9473L52.2215 12.929C52.0896 9.01854 49.9137 5.93164 45.504 5.93164C43.44 5.93164 41.2214 6.80936 39.9982 8.94947V6.2574H35.6777V25.0728H40.1135V14.3356C40.1135 11.8894 41.4519 9.94096 43.9756 9.94096C46.7665 9.94096 47.7998 11.7743 47.7998 14.0674V22.6645C47.7998 23.4291 47.9137 24.6508 47.991 25.0714H52.4254C52.3874 24.768 52.2342 23.3552 52.2342 21.673" fill="#005A42"></path><path d="M69.1452 0.500732V7.19941C67.6708 6.22891 65.8853 5.67898 63.9079 5.67898C58.4842 5.67898 54.4814 9.85626 54.4814 15.5695C54.4814 21.2828 58.4842 25.498 63.9079 25.498C65.9446 25.498 67.7787 24.9163 69.2791 23.8889C69.3177 24.3867 69.369 24.8492 69.409 25.0768H73.5616C73.525 24.7707 73.3751 23.3518 73.3751 21.6655V0.500732M63.9066 21.5097C61.251 21.5097 58.8186 19.4407 58.8186 15.5682C58.8186 11.6957 61.251 9.70388 63.9066 9.70388C66.5622 9.70388 68.9946 11.697 68.9946 15.5682C68.9946 19.4393 66.6008 21.5097 63.9066 21.5097Z" fill="#005A42"></path><path d="M32.9506 6.25734H28.6934L28.6854 7.95927C27.8832 6.91833 25.7606 5.72705 23.2603 5.72705C17.8298 5.72705 13.7285 9.81696 13.7285 15.6088C13.7285 21.4006 17.8298 25.4906 23.2603 25.4906C25.8046 25.4906 27.8919 24.2932 28.6907 23.2502L28.7653 22.9786C28.7866 23.7344 28.8819 24.7327 28.9499 25.1052H33.1305C33.0931 24.7991 32.9426 23.3823 32.9426 21.6973L32.9506 6.25666V6.25734ZM23.4128 21.3993C20.2609 21.3993 17.8305 18.7736 17.8305 15.6108C17.8305 12.4481 20.2609 9.82035 23.4128 9.82035C26.5648 9.82035 28.8433 12.446 28.8433 15.6108C28.8433 18.7756 26.4888 21.3993 23.4128 21.3993Z" fill="#005A42"></path><path d="M13.317 6.25732H9.38428V10.2368H13.317V6.25732Z" fill="#29E04F"></path><path d="M12.3785 20.2134C11.685 20.7125 10.5537 21.1988 9.41116 20.955C8.31721 20.7213 7.78756 19.891 7.78756 19.0241V10.3906L7.79089 10.3858V0.5H3.47439V3.32007C3.47439 4.98068 2.92675 6.25527 0.951376 6.25527H0V10.2348H3.42109L3.42442 10.2382V19.486C3.42442 22.4727 5.2279 24.7144 8.12867 25.3354C8.64366 25.4458 9.17731 25.5 9.71363 25.5C10.7816 25.5 11.8675 25.284 12.8802 24.8593C13.2613 24.7008 13.6177 24.5119 13.9548 24.304L12.3799 20.212L12.3785 20.2134Z" fill="#005A42"></path></svg> 