<?xml version="1.0" encoding="UTF-8"?> <svg xmlns="http://www.w3.org/2000/svg" xmlns:xlink="http://www.w3.org/1999/xlink" version="1.1" id="Layer_1" x="0px" y="0px" viewBox="0 0 300 116" style="enable-background:new 0 0 300 116;" xml:space="preserve"> <style type="text/css"> .st0{fill:#FFFFFF;} </style> <path class="st0" d="M68.1,60.4l5.2-2.7V17.4h-3.9L59.9,30h-1.1l0.6-14h41.3l0.6,14h-1.1l-9.3-12.6h-4v40.3l5.2,2.7v1.4H68.1 C68.1,61.8,68.1,60.4,68.1,60.4z M105.4,58.6V13.9l-4-1.6v-0.8l14.5-2.6h1.5V30l0.4-0.3c3.2-2.8,7.8-4.6,12.4-4.6 c6.3,0,9.1,3.6,9.1,10.2v23.3l3.4,1.8v1.4h-18.9v-1.3l3.4-1.8V35.2c0-3.6-1.6-5.1-4.6-5.1c-2,0-3.7,0.6-5,1.6v26.9l3.3,1.8v1.3H102 v-1.3C102,60.5,105.4,58.6,105.4,58.6z M153.7,44.9c0.4,7.4,3.7,13.1,11.6,13.1c3.8,0,6.5-1.8,9.1-3.1v1.5c-2,2.7-7,6.5-13.9,6.5 c-12.2,0-18.4-6.8-18.4-18.5c0-11.5,6.8-18.6,17.9-18.6c10.4,0,15.8,5.2,15.8,18.8v0.3L153.7,44.9L153.7,44.9L153.7,44.9z M153.5,43.2l10.7-0.7c0-9.2-1.6-15.2-4.7-15.2C156.2,27.3,153.5,34.3,153.5,43.2z M0,79.7c0-19.5,12.9-26.4,27.3-26.4 c6.1,0,11.9,1,15.1,2.3l0.3,13.6h-1.4L32.9,56c-1.4-0.6-2.8-0.9-5.4-0.9c-7.7,0-11.6,8.8-11.5,23.3c0.1,17.3,3.2,25.2,10.2,25.2 c1.8,0,3.2-0.3,4.2-0.7V84.4l-4.6-2.7v-1.6h22.4v1.7l-4.6,2.5v18.3c-3.8,1.5-10.2,2.9-16.9,2.9C10.4,105.5,0,98,0,79.7z M47.5,70.6 v-1.1l15.1-2.7l1.7,0.1v29.6c0,3.6,1.7,4.7,4.6,4.7c1.9,0,3.5-0.7,4.9-2.3V72.4l-4.1-1.8v-1.2l15.1-2.7l1.5,0.1v33.9l4.1,1.7v1.1 l-14.9,1.8l-1.5-0.1v-4.5h-0.4c-2.8,2.5-6.6,4.7-11.3,4.7c-7.2,0-10.5-4.3-10.5-10.7V72.4C51.6,72.4,47.5,70.6,47.5,70.6z M142.8,66.7l1.2,0.1v11h0.3c1.6-8,5.2-11,9.5-11c0.7,0,1.4,0.1,1.9,0.3v11.2c-0.7-0.2-1.9-0.3-3.1-0.3c-3.4,0-6,0.6-8.2,1.6v21.7 l3.4,1.9v1.4h-19.5v-1.4l3.5-1.9V71.8l-4.1-1.2v-1C127.7,69.5,142.8,66.7,142.8,66.7z"></path> <path class="st0" d="M180.6,67.7V56.1l-4.1-1.4v-0.9l15.2-2.8l1.4,0.2v49.7l4.2,1.5v1.3l-15,2l-1.2-0.1v-4.1h-0.3 c-2.2,2.2-5.2,4.2-10,4.2c-8.2,0-14.2-6.2-14.2-19c0-13.5,7-20.1,17.5-20.1C177.2,66.5,179.5,67.1,180.6,67.7L180.6,67.7z M180.6,99.5V69.8c-1-0.6-1.7-1.4-4.2-1.3c-4.1,0.1-6.6,6.3-6.6,17.2c0,9.8,1.8,15.3,7.2,15.1C178.6,100.7,179.8,100.2,180.6,99.5 L180.6,99.5z M214.1,66.7l1.3,0.1v34.5l3.4,1.9v1.4h-19.5v-1.4l3.5-1.9v-29l-4.2-1.6v-1.1L214.1,66.7z M215.5,57.4 c0,3.6-3.1,6.4-6.7,6.4c-3.7,0-6.6-2.7-6.6-6.4c0-3.6,2.9-6.5,6.6-6.5C212.4,50.9,215.5,53.8,215.5,57.4L215.5,57.4z M261.5,101.3 V72l-4.1-1.4v-1.4l15-2.8l1.5,0.1v4.4h0.4c3.2-2.9,8.1-4.7,12.8-4.7c6.5,0,9.4,3.1,9.4,10v25.2l3.5,2v1.4h-19.5v-1.4l3.5-1.9V76.8 c0-3.8-1.6-5.3-4.7-5.3c-2,0-3.6,0.5-5.2,1.6v28.2l3.4,1.9v1.4h-19.6v-1.4L261.5,101.3z M239.8,82.9V78c0-7.4-1.6-9.8-6.2-9.8 c-0.5,0-1,0.1-1.6,0.1l-8.2,11.1h-1.1V69.1c3.5-1.1,7.9-2.4,13.7-2.4c10,0,15.8,2.8,15.8,11.1v24l3.6,0.9v0.9 c-1.4,0.9-4.3,1.7-7.4,1.7c-4.9,0-7.3-1.6-8.4-4.3h-0.3c-2.1,2.8-5.1,4.4-9.7,4.4c-6,0-10-3.7-10-10.1c0-6.2,3.9-9.6,11.7-11.1 L239.8,82.9z M239.8,99.5V84.6l-2.5,0.2c-3.9,0.3-5.3,2.8-5.3,8.4c0,6,2,7.6,4.7,7.6C238.2,100.8,239.1,100.3,239.8,99.5z M110.2,82.9V78c0-7.4-1.6-9.8-6.2-9.8c-0.5,0-1,0.1-1.6,0.1l-8.2,11.1h-1.2V69.1c3.5-1.1,7.9-2.4,13.7-2.4c10,0,15.8,2.8,15.8,11.1 v24l3.6,0.9v0.9c-1.4,0.9-4.3,1.7-7.4,1.7c-4.9,0-7.3-1.6-8.4-4.3h-0.3c-2.1,2.8-5.1,4.4-9.7,4.4c-5.9,0-10-3.7-10-10.1 c0-6.2,3.9-9.6,11.7-11.1C102.1,84.4,110.2,82.9,110.2,82.9z M110.2,99.5V84.6l-2.5,0.2c-3.9,0.3-5.3,2.8-5.3,8.4c0,6,2,7.6,4.7,7.6 C108.6,100.8,109.5,100.3,110.2,99.5z"></path> </svg> 