<?xml version="1.0" encoding="UTF-8"?> <svg xmlns="http://www.w3.org/2000/svg" xmlns:xlink="http://www.w3.org/1999/xlink" version="1.1" id="Layer_1" x="0px" y="0px" viewBox="0 0 169.7 30" style="enable-background:new 0 0 169.7 30;" xml:space="preserve"> <style type="text/css"> .st0{fill:#FFFFFF;} </style> <path class="st0" d="M0,23.9L12,0h4.6L4.6,23.9H0z M23.6,19.7h11.7v4.2H19V0h4.6L23.6,19.7z M38.1,4.1V0h4.6v4.1H38.1z M38.1,23.9 V6.4h4.6v17.5L38.1,23.9z M57.1,6.4H62l-6.4,17.5H51L44.8,6.4h5l3.6,11.2L57.1,6.4z M79.5,16.5H66.9c0.2,2.5,1.8,4.1,4.2,4.1 c2.1,0,3.4-1.1,4-2.7l4,1.3c-1.1,3.3-4.2,5.2-8.1,5.2c-5.3,0-8.7-3.5-8.7-9.1c0-5.5,3.2-9.2,8.8-9.2C76.9,6,79.9,9.9,79.5,16.5 L79.5,16.5z M67,13.1h8c-0.3-2.2-1.6-3.5-3.9-3.5C68.8,9.7,67.3,11,67,13.1z M96.3,23.9l-4.7-9.4h-4v9.4H83V0H92 c5.9,0,8.9,2.8,8.9,7.2c0,3.2-1.6,5.4-4.6,6.5l5.3,10.2L96.3,23.9z M87.6,4.2v6.2h4.6c2.8,0,4-1.2,4-3.2c0-2-1.2-3-4-3H87.6z M115.8,23.9c-0.2-0.3-0.4-0.9-0.5-1.6c-1.2,1.4-3.1,2-5.2,2c-4.7,0-7.9-3.3-7.9-9.1c0-6,3.4-9.2,8-9.2c2,0,3.6,0.6,4.8,1.9V6.4h4.5 v12.4c0,1.7,0.2,3.6,0.5,5.1L115.8,23.9L115.8,23.9z M114.9,15.2c0-3.5-1.7-5.4-4.1-5.4c-2.8,0-4.2,2.3-4.2,5.5 c0,3.4,1.6,5.3,4.3,5.3C113.4,20.5,114.9,18.5,114.9,15.2L114.9,15.2z M148.7,14.5v9.4h-4.6v-9.4c0-1.7,0-4.6-2.7-4.6 c-2.1,0-3.2,1.6-3.2,4.6v9.3h-4.6v-9.4c0-1.8,0-4.6-2.7-4.6c-2,0-3.2,1.6-3.2,4.5v9.4h-4.6V6.4h4.6v1.4c1.3-1.2,2.7-1.8,4.4-1.8 c2.3,0,4,0.9,5,2.4c1.3-1.5,3-2.4,5.5-2.4C148.7,6,148.7,11,148.7,14.5L148.7,14.5z M169.7,15c0,5.8-3.2,9.2-7.7,9.2 c-1.9,0-3.7-0.6-4.8-1.7V30h-4.6V6.4h4.6v1.8C158.3,6.8,160,6,162,6C166.7,6,169.7,9.6,169.7,15L169.7,15z M165.2,15.1 c0-3.4-1.5-5.3-4.1-5.3c-2.6,0-4.1,2-4.1,5.4c0,3.4,1.6,5.3,4.1,5.3C163.7,20.5,165.2,18.4,165.2,15.1z"></path> </svg> 