<?xml version="1.0" encoding="UTF-8"?> <svg xmlns="http://www.w3.org/2000/svg" width="852" height="834" viewBox="0 0 852 834" fill="none"><mask id="mask0_749_37325" style="mask-type:alpha" maskUnits="userSpaceOnUse" x="67" y="86" width="713" height="695"><path d="M562.367 470.54C539.095 546.713 457.873 589.692 381.315 566.355C304.756 543.018 261.41 462.057 284.681 385.884C307.953 309.711 389.175 266.731 465.733 290.068C484.069 295.659 494.419 314.982 488.843 333.225C483.267 351.469 463.882 361.731 445.546 356.139C405.603 343.965 363.233 366.387 351.087 406.127C338.947 445.869 361.56 488.104 401.502 500.284C441.445 512.458 483.815 490.036 495.955 450.294C501.531 432.051 520.915 421.789 539.251 427.38C557.587 432.972 567.936 452.295 562.36 470.538L562.367 470.54Z" fill="white"></path><path d="M591.519 604.394C589.576 610.769 585.769 616.656 580.199 621.162C515.712 673.395 429.902 690.139 350.663 665.954C323.072 657.532 297.453 644.587 274.509 627.47C252.337 610.936 233.182 590.907 217.565 567.935C206.823 552.136 210.914 530.603 226.713 519.842C242.504 509.086 264.02 513.173 274.767 528.979C298.011 563.171 331.247 587.638 370.875 599.736C428.107 617.208 490.099 605.104 536.698 567.36C551.549 555.33 573.326 557.625 585.342 572.482C592.851 581.766 594.766 593.765 591.527 604.389L591.519 604.394Z" fill="white"></path><path d="M671.161 437.546C666.854 451.653 653.784 461.943 638.273 462.031C619.181 462.133 603.627 446.732 603.523 427.634C603.326 390.105 590.934 352.661 568.626 322.204C545.581 290.739 513.627 268.073 476.207 256.648C430.283 242.628 381.649 247.346 339.26 269.928C296.871 292.511 265.808 330.254 251.784 376.201C246.208 394.47 226.886 404.767 208.628 399.192C190.37 393.617 180.085 374.287 185.661 356.018C195.47 323.874 211.29 294.598 232.679 269.007C253.33 244.299 278.258 224.063 306.784 208.87C335.305 193.675 366 184.272 398.015 180.926C431.176 177.459 464.274 180.678 496.397 190.483C548.201 206.294 592.464 237.699 624.398 281.307C639.749 302.262 651.693 325.383 659.901 350.027C668.229 375.019 672.521 401.003 672.652 427.263C672.673 430.843 672.145 434.306 671.152 437.558L671.161 437.546Z" fill="white"></path><path d="M247.157 681.712C245.795 686.174 243.504 690.429 240.256 694.187C227.763 708.657 205.873 710.263 191.368 697.779C139.717 653.318 102.061 595.252 82.4538 529.86C62.3334 462.758 62.5521 391.756 83.0753 324.526C104.816 253.33 147.45 191.807 206.379 146.605C221.553 134.968 243.32 137.818 254.989 152.976C266.658 168.135 263.823 189.857 248.647 201.501C201.222 237.875 166.903 287.414 149.394 344.75C132.863 398.899 132.679 456.052 148.87 510.051C164.673 562.756 195.017 609.551 236.62 645.364C247.356 654.609 251.039 668.984 247.159 681.705L247.157 681.712Z" fill="white"></path><path d="M763.737 531.902C743.746 597.416 705.685 655.347 653.659 699.429C603.034 742.321 541.68 770.194 476.228 780.015C457.333 782.85 439.731 769.817 436.908 750.905C434.084 731.998 447.114 714.365 466.002 711.527C518.734 703.614 568.174 681.151 608.977 646.575C650.839 611.108 681.476 564.464 697.576 511.698C708.868 474.696 712.581 436.613 708.625 398.501C704.798 361.676 694.004 326.346 676.541 293.492C659.076 260.645 635.841 231.952 607.468 208.202C578.108 183.635 544.484 165.454 507.526 154.17C489.258 148.591 478.97 129.243 484.552 110.954C490.134 92.6648 509.468 82.3555 527.735 87.9339C573.593 101.935 615.352 124.52 651.849 155.067C687.09 184.556 715.943 220.18 737.607 260.933C759.269 301.693 772.671 345.55 777.42 391.292C782.345 438.67 777.738 485.973 763.727 531.886L763.737 531.902Z" fill="white"></path></mask><g mask="url(#mask0_749_37325)"><rect x="-22.3499" y="766.897" width="874.838" height="711.588" transform="rotate(-76.6881 -22.3499 766.897)" fill="#A79BF5"></rect></g></svg> 