<?xml version="1.0" encoding="UTF-8"?> <svg xmlns="http://www.w3.org/2000/svg" xmlns:xlink="http://www.w3.org/1999/xlink" version="1.1" id="Layer_1" x="0px" y="0px" viewBox="0 0 125 26" style="enable-background:new 0 0 125 26;" xml:space="preserve"> <style type="text/css"> .st0{fill:#FFFFFF;} </style> <path class="st0" d="M85,5.7c-4.8,0-9.2,3.9-9.2,9.8c0,6.3,4.5,10,9.6,10c4.5,0,7.5-2.6,8.5-5.9l-3.8-1.2c-0.6,1.8-2,3.3-4.7,3.3 c-2.7,0-5-2-5.1-4.9h13.8c0-0.1,0.1-0.7,0.1-1.4C94.2,9.5,90.8,5.7,85,5.7 M80.4,13.5c0.2-2,1.8-4.1,4.6-4.1c3.1,0,4.6,2,4.6,4.1 H80.4L80.4,13.5z"></path> <path class="st0" d="M124.8,22.2v-9.3c0-5-3.2-7.1-6.7-7.1c-2.4,0-4.6,0.8-6.1,3.3c-1-2.2-3.2-3.3-5.6-3.3c-2.1,0-4.5,1-5.6,2.9V6.3 h-4.3v18.8h4.4V13.9c0-2.4,1.5-4.2,3.9-4.2c2.6,0,3.6,1.7,3.6,3.9v11.5h4.4V13.9c0-2.3,1.5-4.2,3.9-4.2c2.5,0,3.6,1.7,3.6,3.9v9h0 c0,0.8,0.1,2,0.2,2.4h4.3C125,24.8,124.9,23.6,124.8,22.2L124.8,22.2z"></path> <path class="st0" d="M52.2,21.7v-8.7l0,0c-0.1-3.9-2.3-7-6.7-7c-2.1,0-4.3,0.9-5.5,3V6.3h-4.3v18.8h4.4V14.3c0-2.4,1.3-4.4,3.9-4.4 c2.8,0,3.8,1.8,3.8,4.1v8.6c0,0.8,0.1,2,0.2,2.4h4.4C52.4,24.8,52.2,23.4,52.2,21.7"></path> <path class="st0" d="M69.1,0.5v6.7c-1.5-1-3.3-1.5-5.2-1.5c-5.4,0-9.4,4.2-9.4,9.9c0,5.7,4,9.9,9.4,9.9c2,0,3.9-0.6,5.4-1.6 c0,0.5,0.1,1,0.1,1.2h4.2c0-0.3-0.2-1.7-0.2-3.4V0.5 M63.9,21.5c-2.7,0-5.1-2.1-5.1-5.9s2.4-5.9,5.1-5.9s5.1,2,5.1,5.9 C69,19.4,66.6,21.5,63.9,21.5z"></path> <path class="st0" d="M33,6.3h-4.3l0,1.7c-0.8-1-2.9-2.2-5.4-2.2c-5.4,0-9.5,4.1-9.5,9.9c0,5.8,4.1,9.9,9.5,9.9 c2.5,0,4.6-1.2,5.4-2.2l0.1-0.3c0,0.8,0.1,1.8,0.2,2.1h4.2c0-0.3-0.2-1.7-0.2-3.4L33,6.3L33,6.3z M23.4,21.4c-3.2,0-5.6-2.6-5.6-5.8 c0-3.2,2.4-5.8,5.6-5.8c3.2,0,5.4,2.6,5.4,5.8S26.5,21.4,23.4,21.4z"></path> <path class="st0" d="M13.3,6.3H9.4v4h3.9V6.3z"></path> <path class="st0" d="M12.4,20.2c-0.7,0.5-1.8,1-3,0.7c-1.1-0.2-1.6-1.1-1.6-1.9v-8.6l0,0V0.5H3.5v2.8C3.5,5,2.9,6.3,1,6.3H0v4h3.4 l0,0v9.2c0,3,1.8,5.2,4.7,5.8c0.5,0.1,1,0.2,1.6,0.2c1.1,0,2.2-0.2,3.2-0.6c0.4-0.2,0.7-0.3,1.1-0.6L12.4,20.2L12.4,20.2z"></path> </svg> 