<?xml version="1.0" encoding="UTF-8"?> <svg xmlns="http://www.w3.org/2000/svg" width="40" height="40" viewBox="0 0 40 40" fill="none"><path fill-rule="evenodd" clip-rule="evenodd" d="M20 40C31.0457 40 40 31.0457 40 20C40 8.9543 31.0457 0 20 0C8.9543 0 0 8.9543 0 20C0 31.0457 8.9543 40 20 40Z" fill="#DBDBDB"></path><path fill-rule="evenodd" clip-rule="evenodd" d="M20 10.6667C22.2133 10.6667 24 12.4534 24 14.6667C24 16.8801 22.2133 18.6667 20 18.6667C17.7867 18.6667 16 16.8801 16 14.6667C16 12.4534 17.7867 10.6667 20 10.6667ZM20 29.6001C16.6667 29.6001 13.72 27.8934 12 25.3067C12.04 22.6534 17.3333 21.2001 20 21.2001C22.6533 21.2001 27.96 22.6534 28 25.3067C26.28 27.8934 23.3333 29.6001 20 29.6001Z" fill="#969696"></path></svg> 