<?xml version="1.0" encoding="UTF-8"?> <svg xmlns="http://www.w3.org/2000/svg" width="54" height="54" viewBox="0 0 54 54" fill="none"><g filter="url(#filter0_ddd_446_32671)"><path fill-rule="evenodd" clip-rule="evenodd" d="M27 50C40.2548 50 51 39.2548 51 26C51 12.7452 40.2548 2 27 2C13.7452 2 3 12.7452 3 26C3 39.2548 13.7452 50 27 50Z" fill="white"></path><path d="M50.5 26C50.5 38.9787 39.9787 49.5 27 49.5C14.0213 49.5 3.5 38.9787 3.5 26C3.5 13.0213 14.0213 2.5 27 2.5C39.9787 2.5 50.5 13.0213 50.5 26Z" stroke="#DBDBDB"></path></g><path fill-rule="evenodd" clip-rule="evenodd" d="M29.4839 21.1509C29.1264 20.7934 28.5489 20.7934 28.1914 21.1509L23.9839 25.3584C23.6264 25.7159 23.6264 26.2934 23.9839 26.6509L28.1914 30.8584C28.5489 31.2159 29.1264 31.2159 29.4839 30.8584C29.8414 30.5009 29.8414 29.9234 29.4839 29.5659L25.9273 26.0001L29.4839 22.4434C29.8414 22.0859 29.8323 21.4993 29.4839 21.1509Z" fill="#969696"></path><defs><filter id="filter0_ddd_446_32671" x="0" y="0" width="54" height="54" filterUnits="userSpaceOnUse" color-interpolation-filters="sRGB"><feFlood flood-opacity="0" result="BackgroundImageFix"></feFlood><feColorMatrix in="SourceAlpha" type="matrix" values="0 0 0 0 0 0 0 0 0 0 0 0 0 0 0 0 0 0 127 0" result="hardAlpha"></feColorMatrix><feOffset dy="1"></feOffset><feGaussianBlur stdDeviation="0.5"></feGaussianBlur><feColorMatrix type="matrix" values="0 0 0 0 0 0 0 0 0 0 0 0 0 0 0 0 0 0 0.04 0"></feColorMatrix><feBlend mode="normal" in2="BackgroundImageFix" result="effect1_dropShadow_446_32671"></feBlend><feColorMatrix in="SourceAlpha" type="matrix" values="0 0 0 0 0 0 0 0 0 0 0 0 0 0 0 0 0 0 127 0" result="hardAlpha"></feColorMatrix><feOffset dy="2"></feOffset><feGaussianBlur stdDeviation="0.5"></feGaussianBlur><feColorMatrix type="matrix" values="0 0 0 0 0 0 0 0 0 0 0 0 0 0 0 0 0 0 0.03 0"></feColorMatrix><feBlend mode="normal" in2="effect1_dropShadow_446_32671" result="effect2_dropShadow_446_32671"></feBlend><feColorMatrix in="SourceAlpha" type="matrix" values="0 0 0 0 0 0 0 0 0 0 0 0 0 0 0 0 0 0 127 0" result="hardAlpha"></feColorMatrix><feOffset dy="1"></feOffset><feGaussianBlur stdDeviation="1.5"></feGaussianBlur><feColorMatrix type="matrix" values="0 0 0 0 0 0 0 0 0 0 0 0 0 0 0 0 0 0 0.05 0"></feColorMatrix><feBlend mode="normal" in2="effect2_dropShadow_446_32671" result="effect3_dropShadow_446_32671"></feBlend><feBlend mode="normal" in="SourceGraphic" in2="effect3_dropShadow_446_32671" result="shape"></feBlend></filter></defs></svg> 