<?xml version="1.0" encoding="UTF-8"?> <svg xmlns="http://www.w3.org/2000/svg" width="54" height="54" viewBox="0 0 54 54" fill="none"><g filter="url(#filter0_ddd_446_32661)"><path fill-rule="evenodd" clip-rule="evenodd" d="M27 50C40.2548 50 51 39.2548 51 26C51 12.7452 40.2548 2 27 2C13.7452 2 3 12.7452 3 26C3 39.2548 13.7452 50 27 50Z" fill="white"></path><path d="M50.5 26C50.5 38.9787 39.9787 49.5 27 49.5C14.0213 49.5 3.5 38.9787 3.5 26C3.5 13.0213 14.0213 2.5 27 2.5C39.9787 2.5 50.5 13.0213 50.5 26Z" stroke="#DBDBDB"></path></g><path fill-rule="evenodd" clip-rule="evenodd" d="M24.5181 20.7693C24.1606 21.1268 24.1606 21.7043 24.5181 22.0618L28.0748 25.6184L24.5181 29.1751C24.1606 29.5326 24.1606 30.1101 24.5181 30.4676C24.8756 30.8251 25.4531 30.8251 25.8106 30.4676L30.0181 26.2601C30.3756 25.9026 30.3756 25.3251 30.0181 24.9676L25.8106 20.7601C25.4623 20.4118 24.8756 20.4118 24.5181 20.7693Z" fill="#969696"></path><defs><filter id="filter0_ddd_446_32661" x="0" y="0" width="54" height="54" filterUnits="userSpaceOnUse" color-interpolation-filters="sRGB"><feFlood flood-opacity="0" result="BackgroundImageFix"></feFlood><feColorMatrix in="SourceAlpha" type="matrix" values="0 0 0 0 0 0 0 0 0 0 0 0 0 0 0 0 0 0 127 0" result="hardAlpha"></feColorMatrix><feOffset dy="1"></feOffset><feGaussianBlur stdDeviation="0.5"></feGaussianBlur><feColorMatrix type="matrix" values="0 0 0 0 0 0 0 0 0 0 0 0 0 0 0 0 0 0 0.04 0"></feColorMatrix><feBlend mode="normal" in2="BackgroundImageFix" result="effect1_dropShadow_446_32661"></feBlend><feColorMatrix in="SourceAlpha" type="matrix" values="0 0 0 0 0 0 0 0 0 0 0 0 0 0 0 0 0 0 127 0" result="hardAlpha"></feColorMatrix><feOffset dy="2"></feOffset><feGaussianBlur stdDeviation="0.5"></feGaussianBlur><feColorMatrix type="matrix" values="0 0 0 0 0 0 0 0 0 0 0 0 0 0 0 0 0 0 0.03 0"></feColorMatrix><feBlend mode="normal" in2="effect1_dropShadow_446_32661" result="effect2_dropShadow_446_32661"></feBlend><feColorMatrix in="SourceAlpha" type="matrix" values="0 0 0 0 0 0 0 0 0 0 0 0 0 0 0 0 0 0 127 0" result="hardAlpha"></feColorMatrix><feOffset dy="1"></feOffset><feGaussianBlur stdDeviation="1.5"></feGaussianBlur><feColorMatrix type="matrix" values="0 0 0 0 0 0 0 0 0 0 0 0 0 0 0 0 0 0 0.05 0"></feColorMatrix><feBlend mode="normal" in2="effect2_dropShadow_446_32661" result="effect3_dropShadow_446_32661"></feBlend><feBlend mode="normal" in="SourceGraphic" in2="effect3_dropShadow_446_32661" result="shape"></feBlend></filter></defs></svg> 