<?xml version="1.0" encoding="UTF-8"?> <svg xmlns="http://www.w3.org/2000/svg" width="180" height="40" viewBox="0 0 180 40" fill="none"><path d="M93.0947 11.759C93.0947 12.9572 92.1294 13.9224 90.9312 13.9224C89.733 13.9224 88.7678 12.9572 88.7678 11.759C88.7678 10.5608 89.6998 9.5956 90.9312 9.5956C92.1627 9.62888 93.0947 10.5941 93.0947 11.759ZM84.1747 16.1191C84.1747 16.3188 84.1747 16.6517 84.1747 16.6517C84.1747 16.6517 83.143 15.3203 80.9463 15.3203C77.3184 15.3203 74.4893 18.0828 74.4893 21.9104C74.4893 25.7047 77.2851 28.5005 80.9463 28.5005C83.1762 28.5005 84.1747 27.1359 84.1747 27.1359V27.7017C84.1747 27.968 84.3744 28.1677 84.6407 28.1677H87.3366V15.6532C87.3366 15.6532 84.8737 15.6532 84.6407 15.6532C84.3744 15.6532 84.1747 15.8861 84.1747 16.1191ZM84.1747 24.1404C83.6755 24.8726 82.677 25.505 81.4788 25.505C79.3487 25.505 77.7178 24.1737 77.7178 21.9104C77.7178 19.6471 79.3487 18.3158 81.4788 18.3158C82.6437 18.3158 83.7088 18.9815 84.1747 19.6804V24.1404ZM89.3336 15.6532H92.5288V28.1677H89.3336V15.6532ZM137.062 15.3203C134.865 15.3203 133.833 16.6517 133.833 16.6517V9.62888H130.638V28.1677C130.638 28.1677 133.101 28.1677 133.334 28.1677C133.6 28.1677 133.8 27.9347 133.8 27.7017V27.1359C133.8 27.1359 134.832 28.5005 137.029 28.5005C140.656 28.5005 143.486 25.7047 143.486 21.9104C143.486 18.1161 140.656 15.3203 137.062 15.3203ZM136.529 25.4717C135.298 25.4717 134.333 24.8393 133.833 24.1071V19.6471C134.333 18.9815 135.398 18.2825 136.529 18.2825C138.659 18.2825 140.29 19.6139 140.29 21.8771C140.29 24.1404 138.659 25.4717 136.529 25.4717ZM128.974 20.7455V28.201H125.779V21.1116C125.779 19.048 125.113 18.216 123.316 18.216C122.351 18.216 121.352 18.7152 120.72 19.4474V28.1677H117.525V15.6532H120.054C120.32 15.6532 120.52 15.8861 120.52 16.1191V16.6517C121.452 15.6864 122.683 15.3203 123.915 15.3203C125.313 15.3203 126.478 15.7197 127.41 16.5185C128.541 17.4505 128.974 18.6486 128.974 20.7455ZM109.77 15.3203C107.573 15.3203 106.541 16.6517 106.541 16.6517V9.62888H103.346V28.1677C103.346 28.1677 105.809 28.1677 106.042 28.1677C106.308 28.1677 106.508 27.9347 106.508 27.7017V27.1359C106.508 27.1359 107.54 28.5005 109.736 28.5005C113.364 28.5005 116.193 25.7047 116.193 21.9104C116.227 18.1161 113.397 15.3203 109.77 15.3203ZM109.237 25.4717C108.006 25.4717 107.04 24.8393 106.541 24.1071V19.6471C107.04 18.9815 108.105 18.2825 109.237 18.2825C111.367 18.2825 112.998 19.6139 112.998 21.8771C112.998 24.1404 111.367 25.4717 109.237 25.4717ZM100.583 15.3203C101.549 15.3203 102.048 15.4867 102.048 15.4867V18.449C102.048 18.449 99.3852 17.5503 97.721 19.4474V28.201H94.5258V15.6532C94.5258 15.6532 96.9888 15.6532 97.2218 15.6532C97.488 15.6532 97.6877 15.8861 97.6877 16.1191V16.6517C98.2868 15.9527 99.5849 15.3203 100.583 15.3203ZM67.4 27.036C67.2335 26.6366 67.0671 26.204 66.9007 25.8378C66.6344 25.2387 66.3682 24.6729 66.1352 24.1404L66.1019 24.1071C63.8054 19.1146 61.3424 14.0556 58.7463 9.06307L58.6465 8.86337C58.3802 8.36412 58.1139 7.83158 57.8477 7.29905C57.5148 6.69995 57.182 6.06757 56.6495 5.46847C55.5844 4.13714 54.0534 3.40491 52.4225 3.40491C50.7583 3.40491 49.2606 4.13714 48.1622 5.4019C47.663 6.001 47.2969 6.63339 46.964 7.23248C46.6978 7.76502 46.4315 8.29755 46.1652 8.7968L46.0654 8.9965C43.5026 13.989 41.0063 19.048 38.7098 24.0405L38.6765 24.1071C38.4435 24.6396 38.1772 25.2055 37.911 25.8046C37.7446 26.1707 37.5781 26.5701 37.4117 27.0028C36.9791 28.2342 36.8459 29.3991 37.0123 30.5973C37.3784 33.0936 39.0426 35.1904 41.3392 36.1224C42.2045 36.4885 43.1032 36.6549 44.0351 36.6549C44.3014 36.6549 44.6342 36.6216 44.9005 36.5883C45.9988 36.4552 47.1305 36.0891 48.2288 35.4567C49.5934 34.6912 50.8915 33.5928 52.3559 31.9952C53.8204 33.5928 55.1517 34.6912 56.483 35.4567C57.5814 36.0891 58.713 36.4552 59.8114 36.5883C60.0776 36.6216 60.4105 36.6549 60.6767 36.6549C61.6087 36.6549 62.5406 36.4885 63.3727 36.1224C65.7025 35.1904 67.3334 33.0603 67.6995 30.5973C67.9658 29.4324 67.8326 28.2675 67.4 27.036ZM52.3892 28.7668C50.5919 26.5035 49.427 24.3734 49.0276 22.5761C48.8612 21.8106 48.8279 21.1449 48.9277 20.5458C48.9943 20.0133 49.194 19.5473 49.4603 19.1479C50.0927 18.2493 51.1577 17.6834 52.3892 17.6834C53.6207 17.6834 54.719 18.216 55.3181 19.1479C55.5844 19.5473 55.7841 20.0133 55.8507 20.5458C55.9505 21.1449 55.9172 21.8438 55.7508 22.5761C55.3514 24.3401 54.1865 26.4702 52.3892 28.7668ZM65.6692 30.3311C65.4363 32.0618 64.2713 33.5596 62.6405 34.2252C61.8417 34.5581 60.9763 34.6579 60.1109 34.5581C59.2788 34.4582 58.4468 34.1919 57.5814 33.6927C56.3832 33.027 55.185 31.9952 53.7871 30.4642C55.9838 27.7683 57.3151 25.3053 57.8144 23.1086C58.0474 22.0768 58.0806 21.1449 57.9808 20.2795C57.8477 19.4474 57.5481 18.6819 57.0821 18.0163C56.0504 16.5185 54.3196 15.6532 52.3892 15.6532C50.4588 15.6532 48.728 16.5518 47.6963 18.0163C47.2303 18.6819 46.9307 19.4474 46.7976 20.2795C46.6645 21.1449 46.6978 22.1101 46.964 23.1086C47.4633 25.3053 48.8279 27.8016 50.9913 30.4975C49.6267 32.0285 48.3952 33.0603 47.197 33.726C46.3316 34.2252 45.4996 34.4915 44.6675 34.5913C43.7688 34.6912 42.9035 34.5581 42.138 34.2585C40.5071 33.5928 39.3422 32.0951 39.1092 30.3644C39.0093 29.5323 39.0759 28.7002 39.4087 27.7683C39.5086 27.4354 39.675 27.1026 39.8414 26.7032C40.0744 26.1707 40.3407 25.6049 40.6069 25.039L40.6402 24.9725C42.9368 20.0133 45.3997 14.9542 47.9625 10.0283L48.0624 9.82858C48.3286 9.32933 48.5949 8.7968 48.8612 8.29755C49.1274 7.76502 49.427 7.26577 49.7931 6.83309C50.4921 6.03429 51.424 5.6016 52.4558 5.6016C53.4876 5.6016 54.4195 6.03429 55.1184 6.83309C55.4846 7.26577 55.7841 7.76502 56.0504 8.29755C56.3166 8.7968 56.5829 9.32933 56.8492 9.82858L56.949 10.0283C59.4785 14.9875 61.9415 20.0465 64.2381 25.0058V25.039C64.5043 25.5716 64.7373 26.1707 65.0036 26.7032C65.17 27.1026 65.3364 27.4354 65.4362 27.7683C65.7025 28.6336 65.8024 29.4657 65.6692 30.3311Z" fill="#7A7493"></path></svg> 