<?xml version="1.0" encoding="UTF-8"?> <svg xmlns="http://www.w3.org/2000/svg" width="180" height="40" viewBox="0 0 180 40" fill="none"><path fill-rule="evenodd" clip-rule="evenodd" d="M29.8192 16.7269L37.6546 11.7285L45.4901 16.6999L37.6546 21.6984L45.4496 26.7239L53.285 21.7254L45.4496 16.7269L53.285 11.7285L45.4496 6.72998L37.6546 11.7285L29.8192 6.72998L21.9837 11.7285L29.8192 16.6999L21.9837 21.6984L29.8192 26.7239L37.6546 21.7254L29.8192 16.7269ZM37.6141 23.333L29.7787 28.3315L37.6141 33.33L45.4496 28.3315L37.6141 23.333ZM65.7677 11.7284H59.4318V28.3179H65.8893C70.0232 28.3179 73.1438 25.8997 73.1438 20.523V19.4017C73.1438 14.0655 69.807 11.7284 65.7677 11.7284ZM62.9712 25.2918V14.741H65.5651C67.9022 14.741 69.5233 16.2405 69.5233 19.5773V20.4554C69.5233 23.7923 67.9832 25.2918 65.6866 25.2918H62.9712ZM77.8586 14.9031H75.0757V28.3584H78.5746V22.1846C78.5746 19.3477 79.2771 18.348 82.1546 18.348H83.6136V14.768H82.7355C80.2363 14.768 78.8583 15.9028 78.3179 18.0237L77.8586 14.9031ZM84.3161 21.5227V21.9009C84.3161 26.332 86.7748 28.6556 91.1113 28.6962C95.1912 28.6962 97.9065 26.3185 97.9065 21.9009V21.5227C97.9065 17.024 95.1101 14.5653 91.1113 14.5653C87.1936 14.5653 84.3161 17.024 84.3161 21.5227ZM94.3266 21.5227V21.8604C94.3266 24.2786 93.0702 25.616 91.0708 25.6566C89.0714 25.6566 87.815 24.2786 87.815 21.8604V21.5227C87.815 18.9019 89.1119 17.5239 91.0708 17.5239C93.0702 17.5239 94.3266 19.0234 94.3266 21.5227ZM102.662 14.9031H99.7438L99.7033 33.0057H103.121V26.2104C103.837 27.7505 105.296 28.7097 107.417 28.7097C110.592 28.7097 113.091 26.3725 113.091 21.955V21.5767C113.091 17.024 110.835 14.5653 107.417 14.5653C105.202 14.5653 103.702 15.7407 103 17.4428L102.662 14.9031ZM109.538 21.5632V21.8604C109.538 24.3732 108.295 25.6566 106.282 25.6971C104.324 25.6971 103.067 24.1975 103.067 21.8199V21.5632C103.067 19.064 104.364 17.5644 106.323 17.5644C108.16 17.5644 109.538 18.8883 109.538 21.5632ZM117.968 28.3314L118.265 25.8727C118.968 27.6154 120.427 28.6556 122.683 28.7097C126.101 28.7097 128.357 26.1564 128.357 21.6983V21.2795C128.357 16.8214 125.979 14.6059 122.764 14.5653C120.643 14.5653 119.143 15.5245 118.387 17.2807V10.4044H114.969V28.3314H117.968ZM124.763 21.3606V21.6983C124.763 24.3732 123.561 25.6566 121.507 25.6566C119.589 25.6566 118.292 24.1975 118.292 21.6983V21.4011C118.292 19.064 119.63 17.5239 121.548 17.5239C123.426 17.5239 124.763 18.9019 124.763 21.3606ZM129.856 21.5227V21.9009C129.856 26.332 132.315 28.6556 136.652 28.6962C140.691 28.6962 143.447 26.3185 143.447 21.9009V21.5227C143.447 17.024 140.65 14.5653 136.652 14.5653C132.734 14.5653 129.856 17.024 129.856 21.5227ZM139.894 21.5227V21.8604C139.894 24.2786 138.651 25.616 136.638 25.6566C134.639 25.6566 133.382 24.2786 133.382 21.8604V21.5227C133.382 18.9019 134.679 17.5239 136.638 17.5239C138.637 17.5239 139.894 19.0234 139.894 21.5227ZM143.312 14.9031L148.026 21.3606L142.906 28.3314H147.04L150.039 23.8733L153.119 28.3314H157.078L152.039 21.32L156.821 14.9031H152.822L150.066 18.9424L147.351 14.9031H143.312Z" fill="#7A7493"></path></svg> 