<?xml version="1.0" encoding="UTF-8"?> <svg xmlns="http://www.w3.org/2000/svg" width="180" height="40" viewBox="0 0 180 40" fill="none"><path d="M50.0775 5.72998V27.7841L52.8991 27.795V17.2931H59.6819V14.5144H52.8883V8.49769H61.733V5.72998H50.0775ZM66.7902 10.2152C67.2795 10.2152 67.7488 10.0193 68.0948 9.67049C68.4408 9.32173 68.6352 8.8487 68.6352 8.35547C68.6352 7.86224 68.4408 7.38921 68.0948 7.04045C67.7488 6.69168 67.2795 6.49575 66.7902 6.49575C66.3009 6.49575 65.8317 6.69168 65.4857 7.04045C65.1397 7.38921 64.9453 7.86224 64.9453 8.35547C64.9453 8.8487 65.1397 9.32173 65.4857 9.67049C65.8317 10.0193 66.3009 10.2152 66.7902 10.2152ZM65.3686 12.9829V27.795H68.1902V12.9829H65.3686Z" fill="#7A7493"></path><path fill-rule="evenodd" clip-rule="evenodd" d="M78.6194 12.5562C74.8861 12.5562 72.2815 15.7397 72.2815 19.5247C72.2815 23.3098 74.8861 26.4932 78.6194 26.4932C80.334 26.4932 81.7449 25.8369 82.7758 24.7429V26.712C82.783 27.3004 82.6744 27.8843 82.4563 28.4301C82.2383 28.976 81.915 29.4728 81.5053 29.8919C81.0956 30.311 80.6075 30.6441 80.0693 30.8719C79.5311 31.0997 78.9535 31.2177 78.3697 31.2191C77.469 31.2191 76.5791 30.869 75.8737 30.3658L74.4629 32.8272C75.5538 33.538 76.8148 33.9389 78.1129 33.9875C79.4109 34.0361 80.698 33.7306 81.8382 33.1032C82.9784 32.4759 83.9294 31.55 84.5911 30.4232C85.2528 29.2964 85.6004 28.0105 85.5975 26.7011V12.9938H82.7758V14.3175C81.7449 13.2236 80.334 12.5672 78.6194 12.5672V12.5562ZM75.0923 19.5247C75.0923 17.1727 76.8721 15.324 78.9341 15.324C80.996 15.324 82.765 17.1837 82.765 19.5247C82.765 21.8767 80.9852 23.7146 78.9341 23.7146C76.8721 23.7146 75.0923 21.8767 75.0923 19.5247Z" fill="#7A7493"></path><path d="M95.7336 15.324C94.9266 15.3384 94.1577 15.6724 93.5931 16.2538C93.0285 16.8352 92.7137 17.6173 92.7166 18.4309V27.7951H89.895V12.983H92.7166V14.3395C93.1388 13.7755 93.6872 13.32 94.3171 13.0101C94.9469 12.7002 95.6406 12.5447 96.3414 12.5563C98.3165 12.5563 99.8358 13.5409 100.704 15.0505C101.188 14.2937 101.851 13.6698 102.633 13.2345C103.416 12.7992 104.293 12.5662 105.186 12.5563C108.388 12.5563 110.395 15.1599 110.395 18.3871V27.7951H107.595V18.4199C107.598 17.6063 107.283 16.8243 106.719 16.2429C106.154 15.6615 105.385 15.3274 104.578 15.3131C103.771 15.3274 103.002 15.6615 102.438 16.2429C101.873 16.8243 101.558 17.6063 101.561 18.4199V27.7842H98.7397V18.4199C98.7428 17.6082 98.4294 16.8277 97.8671 16.2466C97.3049 15.6655 96.5387 15.3303 95.7336 15.3131V15.324Z" fill="#7A7493"></path><path fill-rule="evenodd" clip-rule="evenodd" d="M125.404 14.6676C124.763 13.9941 123.993 13.4595 123.14 13.0965C122.288 12.7335 121.37 12.5496 120.445 12.5563C116.256 12.5563 113.282 16.1226 113.282 20.389C113.282 24.6554 116.256 28.2217 120.445 28.2217C121.37 28.2265 122.287 28.0418 123.139 27.6788C123.992 27.3159 124.762 26.7823 125.404 26.1104V27.7951H128.215V12.9829H125.393V14.6676H125.404ZM116.093 20.389C116.093 17.5666 118.242 15.324 120.749 15.324C123.245 15.324 125.404 17.5666 125.404 20.389C125.404 23.2114 123.255 25.4431 120.749 25.4431C118.252 25.4431 116.093 23.2114 116.093 20.389Z" fill="#7A7493"></path></svg> 