<?xml version="1.0" encoding="UTF-8"?> <svg xmlns="http://www.w3.org/2000/svg" width="180" height="40" viewBox="0 0 180 40" fill="none"><path d="M33.6213 1.74243H57.8461V13.8549H45.7337L33.6213 1.74243ZM33.6213 13.8549H45.7337L57.8461 25.9673H33.6213V13.8549ZM33.6213 25.9673H45.7337V38.0797L33.6213 25.9673Z" fill="#7A7493"></path><path d="M71.5146 11.298H81.3067V14.4096H75.2208V18.7338H81.3067V21.7767H75.2208V27.3134H71.5146V11.298ZM83.32 16.2855H86.8206V18.5963C87.0035 17.8022 87.3776 17.1926 87.9417 16.7659C88.5203 16.3231 89.1626 16.1026 89.8636 16.1026C90.2299 16.1026 90.5352 16.1336 90.7785 16.194V19.4431C90.4294 19.401 90.078 19.3783 89.7261 19.3744C88.7652 19.3744 88.0415 19.6864 87.5527 20.312C87.0656 20.9222 86.8206 21.8371 86.8206 23.0579V27.3134H83.3216V16.2855H83.32ZM96.3047 27.611C95.2373 27.611 94.3063 27.3588 93.5133 26.8556C92.7353 26.3524 92.1168 25.6381 91.7289 24.7963C91.3172 23.9125 91.1099 22.9122 91.1099 21.7994C91.1099 20.7011 91.3249 19.7091 91.7516 18.8252C92.1517 17.9712 92.7868 17.2491 93.582 16.7432C94.3895 16.24 95.3127 15.9879 96.3507 15.9879C97.1281 15.9879 97.8231 16.1563 98.4327 16.4916C99.0422 16.828 99.5 17.2857 99.8053 17.8643V16.2855H103.283V27.3134H99.8053V25.7573C99.5 26.3064 99.0273 26.7559 98.3867 27.1072C97.746 27.4469 97.0301 27.6198 96.3047 27.611ZM97.3116 24.7049C98.15 24.7049 98.7984 24.4306 99.2561 23.8814C99.7139 23.3322 99.9428 22.6379 99.9428 21.7994C99.9428 20.9759 99.7139 20.2893 99.2561 19.7401C98.7984 19.1909 98.15 18.9166 97.3116 18.9166C96.5175 18.9166 95.8779 19.1832 95.3897 19.7174C94.917 20.2516 94.6804 20.9449 94.6804 21.7994C94.6804 22.6539 94.917 23.355 95.3897 23.9041C95.8779 24.4384 96.5186 24.7049 97.3116 24.7049ZM105.731 16.2855H109.232V17.887C109.477 17.3217 109.872 16.864 110.421 16.5143C110.986 16.1646 111.642 15.9879 112.389 15.9879C114.128 15.9879 115.28 16.6662 115.843 18.0244C116.154 17.4087 116.639 16.8995 117.239 16.5603C117.881 16.1741 118.618 15.9762 119.367 15.9879C121.975 15.9879 123.279 17.4819 123.279 20.4722V27.3134H119.756V21.1128C119.756 20.3663 119.618 19.8172 119.344 19.4658C119.069 19.1156 118.658 18.9394 118.108 18.9394C117.514 18.9394 117.056 19.1455 116.736 19.5573C116.415 19.954 116.255 20.6473 116.255 21.6393V27.3134H112.732V21.0901C112.732 20.3431 112.595 19.8011 112.32 19.4658C112.062 19.1156 111.657 18.9394 111.109 18.9394C110.498 18.9394 110.032 19.1455 109.712 19.5573C109.392 19.954 109.232 20.6473 109.232 21.6393V27.3134H105.732V16.2855H105.731ZM136.43 21.2275C136.43 21.6997 136.399 22.2112 136.337 22.7603H128.193C128.224 23.4774 128.467 24.0255 128.925 24.4079C129.383 24.7886 130.002 24.9798 130.778 24.9798C131.862 24.9798 132.548 24.6512 132.838 23.9956H136.269C136.101 25.079 135.506 25.9551 134.485 26.6268C133.478 27.2823 132.242 27.611 130.778 27.611C128.887 27.611 127.4 27.0995 126.317 26.0776C125.249 25.0551 124.715 23.6298 124.715 21.7994C124.715 20.6096 124.959 19.58 125.447 18.7105C125.919 17.8421 126.646 17.1394 127.529 16.6972C128.43 16.225 129.474 15.9879 130.665 15.9879C131.793 15.9879 132.792 16.209 133.661 16.6518C134.545 17.0945 135.225 17.7119 135.697 18.5049C136.186 19.299 136.43 20.2062 136.43 21.2275ZM132.973 20.5869C132.958 19.8548 132.753 19.2973 132.355 18.9166C131.96 18.5359 131.387 18.3447 130.64 18.3447C129.893 18.3447 129.298 18.5503 128.855 18.9626C128.429 19.3594 128.207 19.9003 128.191 20.5869H132.973ZM137.973 16.2855H141.474V18.5963C141.657 17.8022 142.031 17.1926 142.595 16.7659C143.142 16.3348 143.819 16.1009 144.517 16.1026C144.882 16.1026 145.188 16.1336 145.432 16.194V19.4431C145.082 19.401 144.731 19.3783 144.379 19.3744C143.418 19.3744 142.694 19.6864 142.206 20.312C141.717 20.9222 141.474 21.8371 141.474 23.0579V27.3134H137.973V16.2855Z" fill="#7A7493"></path></svg> 