<?xml version="1.0" encoding="UTF-8"?> <svg xmlns="http://www.w3.org/2000/svg" width="180" height="40" viewBox="0 0 180 40" fill="none"><path fill-rule="evenodd" clip-rule="evenodd" d="M34.4525 5.0675H46.6178L34.4525 34.1613V5.0675ZM67.3268 5.0675H55.1773L67.3268 34.1613V5.0675ZM50.8977 15.7904L58.6407 34.1613H53.5606L51.2464 28.3124H45.5798L50.8977 15.7904ZM88.6078 27.6825L87.1734 23.5693H81.2849L79.9296 27.635C79.8742 27.7855 79.8028 27.8331 79.6523 27.8331H77.1875C77.0448 27.8331 76.9893 27.7618 77.0131 27.5874L82.0932 13.1396C82.1963 12.8939 82.2676 12.6403 82.3151 11.8081C82.3151 11.7051 82.3706 11.6338 82.4657 11.6338H85.8895C86.0163 11.6338 86.04 11.6576 86.0638 11.7844L91.7621 27.6112C91.7859 27.7618 91.7621 27.8331 91.6115 27.8331H88.8535C88.7267 27.8331 88.6554 27.7855 88.6078 27.6825ZM82.3775 19.9551C82.2719 20.2725 82.1686 20.5832 82.0695 20.8826H86.3888C86.2343 20.4006 86.0246 19.7624 85.7931 19.0578L85.7928 19.0569C85.2402 17.3753 84.5634 15.3159 84.2172 14.0986H84.1935C83.8499 15.5277 83.0656 17.886 82.3776 19.9548L82.3775 19.9551ZM99.0878 28.0788C100.57 28.0788 102.147 27.8093 103.748 27.1198C103.875 27.0722 103.898 27.0168 103.898 26.8979C103.851 26.4541 103.795 25.8121 103.795 25.3208V10.4212C103.795 10.3261 103.795 10.2785 103.677 10.2785H100.99C100.887 10.2785 100.839 10.3261 100.839 10.4529V15.5013C100.419 15.4538 100.126 15.43 99.7773 15.43C95.4421 15.43 92.7792 18.291 92.7792 21.8653C92.7792 26.0103 95.5135 28.0788 99.0878 28.0788ZM100.839 25.3208C100.395 25.4634 99.9041 25.5189 99.4048 25.5189C97.4393 25.5189 95.8305 24.4093 95.8305 21.7147C95.8305 19.3292 97.4869 17.9185 99.6822 17.9185C100.126 17.9185 100.514 17.9661 100.839 18.0929V25.3208ZM106.478 21.7703C106.478 18.2673 108.768 15.43 112.469 15.43C116.266 15.43 118.334 18.3148 118.334 21.691C118.334 25.5189 115.893 28.0788 112.414 28.0788C108.301 28.0788 106.478 24.9007 106.478 21.7703ZM115.299 21.7703C115.299 19.7176 114.411 17.9186 112.319 17.9186C110.662 17.9186 109.481 19.3768 109.481 21.7148C109.481 23.9893 110.591 25.5665 112.469 25.5665C113.991 25.5665 115.299 24.3064 115.299 21.7703ZM121.112 10.2785C121.009 10.2785 120.937 10.3261 120.937 10.4529V27.3179C120.937 27.3893 121.009 27.5161 121.112 27.5398C122.293 27.9044 123.529 28.0788 124.805 28.0788C128.459 28.0788 132.009 25.8121 132.009 21.2471C132.009 17.9423 129.742 15.43 126.192 15.43C125.376 15.43 124.615 15.5568 123.949 15.7787L123.917 10.4767C123.917 10.3023 123.87 10.2785 123.695 10.2785H121.112ZM128.974 21.5483C128.974 24.2825 127.103 25.5664 125.082 25.5664C124.662 25.5664 124.29 25.5427 123.949 25.4396V18.2435C124.337 18.0929 124.805 17.9661 125.669 17.9661C127.618 17.9661 128.974 19.2024 128.974 21.5483ZM144.572 22.333C144.231 22.4122 143.24 22.436 142.036 22.436H137.027C137.098 24.1558 138.239 25.5427 140.752 25.5427C141.861 25.5427 142.876 25.3446 143.811 24.9483C143.882 24.9007 143.953 24.9245 143.953 25.0434V27.0961C143.953 27.2387 143.906 27.318 143.811 27.3655C142.876 27.8093 141.79 28.0788 140.11 28.0788C135.624 28.0788 134.023 24.9245 134.023 21.8891C134.023 18.4654 136.092 15.43 139.816 15.43C143.462 15.43 144.873 18.2911 144.873 20.6369C144.873 21.3264 144.841 21.8891 144.77 22.1586C144.746 22.2616 144.698 22.3092 144.572 22.333ZM139.69 17.7997C137.986 17.7997 137.225 19.1074 137.027 20.312H140.704H140.704C141.639 20.312 141.956 20.312 142.059 20.2882V20.0901C142.059 19.3768 141.568 17.7997 139.69 17.7997Z" fill="#7A7493"></path></svg> 