<?xml version="1.0" encoding="UTF-8"?> <svg xmlns="http://www.w3.org/2000/svg" width="96" height="57" viewBox="0 0 96 57" fill="none"><path d="M5.95148 0H12.1617C12.6792 0 13.0674 0.38814 13.0674 1.03504V8.47439C13.0674 8.86253 13.3908 9.0566 13.779 9.0566H20.8302C21.3477 9.0566 21.7359 9.44475 21.7359 9.96227V13.1968C21.7359 13.7143 21.3477 14.2318 20.8302 14.2318H13.8437C13.4555 14.2318 13.1321 14.5553 13.1321 14.814V32.1509C13.1321 34.1563 14.8787 35.1267 16.5606 35.1267C17.9838 35.1267 19.0189 34.7385 19.9892 34.0916C20.3774 33.7682 21.1536 33.9623 21.3477 34.4798L23.6119 38.3612C23.9353 38.8787 23.7412 39.5903 23.2237 39.655C21.8652 40.3666 18.8895 41.6604 15.0728 41.6604C8.53908 41.6604 5.04582 38.6846 5.04582 33.0566V14.7493C5.04582 14.3612 4.72237 14.1671 4.39892 14.1671H0.90566C0.38814 14.2965 0 13.779 0 13.2615V10.027C0 9.50943 0.38814 9.12129 0.90566 9.12129H4.33423C4.72237 9.12129 4.98113 8.79784 4.98113 8.53908V1.03504C5.04582 0.45283 5.43396 0 5.95148 0Z" fill="#FCF9F9"></path><path d="M28.2049 9.05661H33.5094C33.8976 9.05661 34.3504 9.38006 34.3504 9.63882L34.8679 11.6442C34.9973 11.9677 35.2561 12.0324 35.5795 11.7736C37.6496 9.63882 40.3666 8.53909 43.407 8.53909C46.3828 8.53909 48.4528 9.7682 49.4232 10.2857C49.8113 10.6092 49.9407 11.1267 49.7466 11.5795L46.965 15.8491C46.6415 16.2372 46.124 16.3666 45.6065 16.1725C44.8949 15.7844 43.7305 15.3315 42.1779 15.3315C39.9137 15.3315 37.8437 16.1725 36.1617 17.5957C35.6442 17.9838 35.3208 18.8895 35.3208 19.6011V40.3019C35.3208 40.8194 34.9326 41.2076 34.4151 41.2076H28.2049C27.6873 41.2076 27.2992 40.8194 27.2992 40.3019V9.96227C27.2992 9.44475 27.6873 9.05661 28.2049 9.05661Z" fill="#FCF9F9"></path><path d="M57.186 26.6523C57.186 31.8275 60.1617 35.1914 64.9488 35.1914C67.213 35.1914 69.283 34.3504 71.0297 32.9272C71.5472 32.5391 71.8706 31.8922 71.8706 31.1806V19.2129C71.8706 18.5013 71.5472 17.9191 71.0297 17.4016C69.4771 15.9784 67.2776 15.1375 64.9488 15.1375C60.1617 15.1375 57.186 18.5013 57.186 23.6765V26.6523ZM49.2938 23.6118C49.2938 14.2965 55.5041 8.60376 62.7494 8.60376C66.6954 8.60376 69.283 9.89756 71.7413 12.2911C72.0647 12.6145 72.3882 12.4205 72.3882 12.1617L72.9057 9.89756C73.0351 9.50942 73.5526 9.18597 73.9407 9.18597H79.1159C79.5041 9.18597 80.0216 9.57411 80.0216 10.0916V42.372C80.0216 51.2345 73.4879 56.8625 63.7844 56.8625C60.1617 56.9272 56.7332 56.0862 54.1456 54.3396C53.7574 54.1455 53.4987 53.4986 53.8221 53.0458L56.0863 49.3585C56.4097 48.9703 56.9919 48.7763 57.4448 49.035C58.9973 49.9407 61.1968 50.3288 63.2669 50.3288C68.8302 50.3288 71.9353 47.2884 71.9353 42.1132V38.2318C71.9353 37.9083 71.5472 37.7143 71.2237 37.9083C68.9596 40.3666 66.1779 41.7897 62.5553 41.7897C54.7278 41.7897 49.2938 35.7089 49.2938 26.8463V23.6118Z" fill="#FCF9F9"></path><path d="M91.4717 32.6038C94.0593 32.6038 96 34.5445 96 37.0674C96 39.5903 94.0593 41.531 91.4717 41.531C88.8841 41.4016 86.814 39.5903 86.814 37.0674C86.814 34.5445 88.8841 32.6038 91.4717 32.6038Z" fill="#FCF9F9"></path></svg> 