<?xml version="1.0" encoding="UTF-8"?> <svg xmlns="http://www.w3.org/2000/svg" xmlns:xlink="http://www.w3.org/1999/xlink" viewBox="0,0,256,256" width="32px" height="32px"><g fill="#59cfaf" fill-rule="nonzero" stroke="none" stroke-width="1" stroke-linecap="butt" stroke-linejoin="miter" stroke-miterlimit="10" stroke-dasharray="" stroke-dashoffset="0" font-family="none" font-weight="none" font-size="none" text-anchor="none" style="mix-blend-mode: normal"><g transform="scale(8,8)"><path d="M4.5,3c-0.82843,0 -1.5,0.67157 -1.5,1.5c0,0.82843 0.67157,1.5 1.5,1.5c0.82843,0 1.5,-0.67157 1.5,-1.5c0,-0.82843 -0.67157,-1.5 -1.5,-1.5zM9.5,3c-0.828,0 -1.5,0.672 -1.5,1.5c0,0.828 0.672,1.5 1.5,1.5h1.50586l-0.00195,9.6582l-2.08984,2.69922c-1.27775,1.65242 -1.20316,3.99553 0.17578,5.56445h-0.00195l2.37109,2.69727c1.32853,1.51277 3.24678,2.38086 5.25977,2.38086h5.28516c3.85433,0 7,-3.14567 7,-7v-9c0,-1.64497 -1.35503,-3 -3,-3c-0.53634,0 -1.03488,0.15507 -1.47266,0.40625c-0.5343,-0.83993 -1.46765,-1.40625 -2.52734,-1.40625c-0.60711,0 -1.08792,0.33674 -1.5625,0.65234c-0.51442,-0.92219 -1.31597,-1.65234 -2.4375,-1.65234c-0.35099,0 -0.68381,0.07251 -0.99805,0.18555v-2.18555c0,-1.64497 -1.35503,-3 -3,-3c-0.00198,0 -0.00388,0 -0.00586,0zM14.00586,5c0.56503,0 1,0.43497 1,1v4.98047c-0.00004,0.00667 -0.00195,0.01286 -0.00195,0.01953v3h0.00195h1.99805h0.00195v-3.00977c0.00535,-0.55991 0.43652,-0.99023 0.99805,-0.99023c0.56503,0 1,0.43497 1,1v1v2h2v-2c0,-0.56503 0.43497,-1 1,-1c0.56503,0 1,0.43497 1,1v1v1h2v-1c0,-0.56503 0.43497,-1 1,-1c0.56503,0 1,0.43497 1,1v9c0,2.77367 -2.22633,5 -5,5h-5.28516c-1.43902,0 -2.80634,-0.61799 -3.75586,-1.69922l-2.37109,-2.69922c-0.75506,-0.85908 -0.794,-2.11395 -0.09375,-3.01953h-0.00195l0.50976,-0.6582v1.07617h2v-5h-0.00391l0.00391,-9c0,-0.56503 0.43497,-1 1,-1z"></path></g></g></svg> 